<svg width="79" height="79" viewBox="0 0 79 79" fill="none" xmlns="http://www.w3.org/2000/svg">
<path d="M39.3772 16.7421C34.5959 16.7419 29.9219 18.1594 25.9464 20.8156C21.9708 23.4717 18.8723 27.2472 17.0424 31.6644C15.2126 36.0816 14.7338 40.9421 15.6665 45.6315C16.5991 50.3208 18.9013 54.6283 22.2821 58.0092C25.6628 61.39 29.9703 63.6925 34.6596 64.6254C39.3489 65.5582 44.2096 65.0795 48.6269 63.2499C53.0442 61.4202 56.8197 58.322 59.476 54.3466C62.1323 50.3711 63.55 45.6971 63.55 40.9159C63.5431 34.5068 60.9942 28.3624 56.4624 23.8304C51.9306 19.2985 45.7862 16.7492 39.3772 16.7421" fill="#F8CFA0"/>
<path d="M39.3772 16.7421C34.5959 16.7419 29.9219 18.1594 25.9464 20.8156C21.9708 23.4717 18.8723 27.2472 17.0424 31.6644C15.2126 36.0816 14.7338 40.9421 15.6665 45.6315C16.5991 50.3208 18.9013 54.6283 22.2821 58.0092C25.6628 61.39 29.9703 63.6925 34.6596 64.6254C39.3489 65.5582 44.2096 65.0795 48.6269 63.2499C53.0442 61.4202 56.8197 58.322 59.476 54.3466C62.1323 50.3711 63.55 45.6971 63.55 40.9159C63.5431 34.5068 60.9942 28.3624 56.4624 23.8304C51.9306 19.2985 45.7862 16.7492 39.3772 16.7421" stroke="#707070" stroke-width="0.8"/>
<path d="M39.377 65.09C52.7279 65.09 63.551 54.2669 63.551 40.916C63.551 27.5651 52.7279 16.742 39.377 16.742C26.0261 16.742 15.203 27.5651 15.203 40.916C15.203 54.2669 26.0261 65.09 39.377 65.09Z" stroke="black" stroke-width="0.8" stroke-miterlimit="10"/>
<path d="M44.397 50.651C43.3641 49.3625 41.8994 48.4918 40.274 48.2C38.6351 47.9962 36.9778 48.393 35.609 49.317C36.749 50.4326 38.2109 51.1617 39.7879 51.4011C41.3649 51.6405 42.9773 51.3781 44.397 50.651" fill="black"/>
<path d="M44.397 50.651C43.3641 49.3625 41.8994 48.4918 40.274 48.2C38.6351 47.9962 36.9778 48.393 35.609 49.317C36.749 50.4326 38.2109 51.1617 39.7879 51.4011C41.3649 51.6405 42.9773 51.3781 44.397 50.651" stroke="#707070" stroke-width="0.8"/>
<path d="M44.397 50.651C43.3641 49.3625 41.8994 48.4918 40.274 48.2C38.6351 47.9962 36.9778 48.393 35.609 49.317C36.749 50.4326 38.2109 51.1617 39.7879 51.4011C41.3649 51.6405 42.9773 51.3781 44.397 50.651Z" fill="white" stroke="black" stroke-width="0.8" stroke-miterlimit="10"/>
<path d="M30.313 55.191C30.3568 55.2935 30.4266 55.3828 30.5155 55.45C30.6045 55.5172 30.7094 55.5599 30.82 55.574L46.486 57.552C46.6005 57.564 46.7161 57.5484 46.8233 57.5064C46.9305 57.4645 47.0261 57.3975 47.102 57.311C47.1815 57.2238 47.2396 57.1193 47.2719 57.0059C47.3041 56.8924 47.3097 56.773 47.288 56.657C46.8985 54.3184 45.819 52.1496 44.188 50.429C44.188 50.429 39.513 52.609 35.531 49.316C33.3681 50.5468 31.5822 52.3448 30.366 54.516C30.3042 54.6162 30.2672 54.7297 30.258 54.8471C30.2488 54.9645 30.2676 55.0823 30.313 55.191Z" fill="#A35858" stroke="black" stroke-width="0.8" stroke-miterlimit="10"/>
<g opacity="0.2">
<g opacity="0.2">
<g opacity="0.2">
<path opacity="0.2" d="M58.6821 27.442C61.1946 32.7826 61.6139 38.871 59.8574 44.5057C58.1008 50.1404 54.2958 54.912 49.1936 57.8788C44.0913 60.8455 38.0623 61.792 32.2963 60.5313C26.5304 59.2707 21.4466 55.8943 18.048 51.0689C19.4384 54.0318 21.4299 56.673 23.8962 58.8246C26.3625 60.9761 29.2496 62.5912 32.3737 63.5667C35.4978 64.5423 38.7905 64.8571 42.0429 64.4913C45.2953 64.1255 48.436 63.0871 51.2653 61.442C54.0947 59.7968 56.551 57.5808 58.4777 54.9352C60.4045 52.2895 61.7597 49.272 62.4572 46.0743C63.1548 42.8766 63.1792 39.5689 62.5293 36.3612C61.8793 33.1535 60.5693 30.116 58.6821 27.442" fill="#FDA502"/>
</g>
</g>
</g>
<path d="M31.4528 40.152C30.6308 40.1533 29.8236 40.3702 29.1115 40.7809C28.3994 41.1917 27.8076 41.7821 27.395 42.4931C27.2808 42.6903 27.2496 42.9245 27.3083 43.1447C27.367 43.3649 27.5108 43.5528 27.7079 43.6669C27.9051 43.7811 28.1396 43.8123 28.3598 43.7536C28.58 43.6949 28.7678 43.5511 28.882 43.3539C29.1425 42.9027 29.517 42.5281 29.9682 42.2675C30.4194 42.007 30.9313 41.8698 31.4523 41.8698C31.9734 41.8698 32.4852 42.007 32.9365 42.2675C33.3877 42.5281 33.7624 42.9027 34.0229 43.3539C34.1389 43.5473 34.3261 43.6874 34.5444 43.7438C34.7626 43.8003 34.9945 43.7686 35.1896 43.6557C35.3848 43.5428 35.5277 43.3577 35.5876 43.1403C35.6475 42.923 35.6197 42.691 35.5099 42.4941C35.0976 41.783 34.506 41.1924 33.7941 40.7814C33.0822 40.3705 32.2748 40.1536 31.4528 40.152" fill="#12100E"/>
<path d="M47.302 40.152C46.4801 40.1535 45.6731 40.3704 44.9612 40.7812C44.2493 41.192 43.6577 41.7822 43.2451 42.4931C43.138 42.6897 43.1117 42.9203 43.1721 43.1359C43.2326 43.3516 43.3749 43.5351 43.5686 43.6474C43.7624 43.7597 43.9924 43.7918 44.2095 43.737C44.4266 43.6822 44.6139 43.5447 44.7312 43.3539C44.9917 42.9027 45.3662 42.5281 45.8174 42.2675C46.2686 42.007 46.7805 41.8698 47.3015 41.8698C47.8226 41.8698 48.3344 42.007 48.7857 42.2675C49.2369 42.5281 49.6116 42.9027 49.8721 43.3539C49.9881 43.5473 50.1753 43.6874 50.3936 43.7438C50.6118 43.8003 50.8437 43.7686 51.0388 43.6557C51.234 43.5428 51.3769 43.3577 51.4368 43.1403C51.4967 42.923 51.4689 42.691 51.3592 42.4941C50.9468 41.783 50.355 41.1924 49.6431 40.7814C48.9312 40.3705 48.124 40.1536 47.302 40.152" fill="#12100E"/>
<g style="mix-blend-mode:multiply" opacity="0.2">
<g style="mix-blend-mode:multiply" opacity="0.2">
<g style="mix-blend-mode:multiply" opacity="0.2">
<g style="mix-blend-mode:multiply" opacity="0.2">
<path d="M57.9839 25.286C56.065 23.2398 53.7917 21.5579 51.274 20.3211C47.0018 18.2241 42.2195 17.3912 37.49 17.921C34.554 18.195 25.658 18.8899 18.95 30.1629C18.9019 30.2667 18.8864 30.3826 18.9053 30.4954C18.9242 30.6082 18.9766 30.7126 19.0559 30.795C20.9647 33.0954 23.1935 35.1101 25.6741 36.7779C26.0281 37.0159 31.6861 40.7781 32.6741 39.6961C33.7891 38.4801 28.1271 32.0629 28.8821 31.3809C29.3281 30.9809 31.4151 33.1229 33.8411 34.5899C42.0351 39.5459 52.583 35.8559 54.117 35.3189C59.3598 33.4446 63.9442 30.0855 67.3111 25.651C67.3656 25.5797 67.4042 25.4975 67.4241 25.41C67.5075 25.1677 67.5347 24.9097 67.5037 24.6553C67.4727 24.401 67.3843 24.1571 67.2451 23.942C66.6911 23.38 65.1449 23.642 63.5979 24.963C64.5838 24.1005 65.4 23.0618 66.0049 21.9C66.5769 20.793 68.0199 18 66.7339 16.138C66.5065 15.8091 66.2149 15.5296 65.8765 15.3165C65.5381 15.1034 65.1599 14.961 64.7649 14.898C63.3479 14.812 61.7521 16.348 60.6951 18.962C60.6494 19.0765 60.5717 19.1753 60.4712 19.2467C60.3707 19.318 60.2516 19.3589 60.1284 19.3643C60.0053 19.3697 59.8832 19.3395 59.7769 19.2772C59.6705 19.2148 59.5846 19.1231 59.5291 19.013L59.513 18.983C59.378 18.727 58.643 17.329 57.69 17.306C56.49 17.276 55.628 19.564 55.356 20.806C54.931 22.745 55.219 22.7821 55.219 22.7821" fill="black"/>
<path d="M57.9839 25.286C56.065 23.2398 53.7917 21.5579 51.274 20.3211C47.0018 18.2241 42.2195 17.3912 37.49 17.921C34.554 18.195 25.658 18.8899 18.95 30.1629C18.9019 30.2667 18.8864 30.3826 18.9053 30.4954C18.9242 30.6082 18.9766 30.7126 19.0559 30.795C20.9647 33.0954 23.1935 35.1101 25.6741 36.7779C26.0281 37.0159 31.6861 40.7781 32.6741 39.6961C33.7891 38.4801 28.1271 32.0629 28.8821 31.3809C29.3281 30.9809 31.4151 33.1229 33.8411 34.5899C42.0351 39.5459 52.583 35.8559 54.117 35.3189C59.3598 33.4446 63.9442 30.0855 67.3111 25.651C67.3656 25.5797 67.4042 25.4975 67.4241 25.41C67.5075 25.1677 67.5347 24.9097 67.5037 24.6553C67.4727 24.401 67.3843 24.1571 67.2451 23.942C66.6911 23.38 65.1449 23.642 63.5979 24.963C64.5838 24.1005 65.4 23.0618 66.0049 21.9C66.5769 20.793 68.0199 18 66.7339 16.138C66.5065 15.8091 66.2149 15.5296 65.8765 15.3165C65.5381 15.1034 65.1599 14.961 64.7649 14.898C63.3479 14.812 61.7521 16.348 60.6951 18.962C60.6494 19.0765 60.5717 19.1753 60.4712 19.2467C60.3707 19.318 60.2516 19.3589 60.1284 19.3643C60.0053 19.3697 59.8832 19.3395 59.7769 19.2772C59.6705 19.2148 59.5846 19.1231 59.5291 19.013L59.513 18.983C59.378 18.727 58.643 17.329 57.69 17.306C56.49 17.276 55.628 19.564 55.356 20.806C54.931 22.745 55.219 22.7821 55.219 22.7821" stroke="#707070" stroke-width="0.8"/>
</g>
<g style="mix-blend-mode:multiply" opacity="0.2">
<path d="M57.9839 25.286C56.065 23.2398 53.7917 21.5579 51.274 20.3211C47.0018 18.2241 42.2195 17.3912 37.49 17.921C34.554 18.195 25.658 18.8899 18.95 30.1629C18.9019 30.2667 18.8864 30.3826 18.9053 30.4954C18.9242 30.6082 18.9766 30.7126 19.0559 30.795C20.9647 33.0954 23.1935 35.1101 25.6741 36.7779C26.0281 37.0159 31.6861 40.7781 32.6741 39.6961C33.7891 38.4801 28.1271 32.0629 28.8821 31.3809C29.3281 30.9809 31.4151 33.1229 33.8411 34.5899C42.0351 39.5459 52.583 35.8559 54.117 35.3189C59.3598 33.4446 63.9442 30.0855 67.3111 25.651C67.3656 25.5797 67.4042 25.4975 67.4241 25.41C67.5075 25.1677 67.5347 24.9097 67.5037 24.6553C67.4727 24.401 67.3843 24.1571 67.2451 23.942C66.6911 23.38 65.1449 23.642 63.5979 24.963C64.5838 24.1005 65.4 23.0618 66.0049 21.9C66.5769 20.793 68.0199 18 66.7339 16.138C66.5065 15.8091 66.2149 15.5296 65.8765 15.3165C65.5381 15.1034 65.1599 14.961 64.7649 14.898C63.3479 14.812 61.7521 16.348 60.6951 18.962C60.6494 19.0765 60.5717 19.1753 60.4712 19.2467C60.3707 19.318 60.2516 19.3589 60.1284 19.3643C60.0053 19.3697 59.8832 19.3395 59.7769 19.2772C59.6705 19.2148 59.5846 19.1231 59.5291 19.013L59.513 18.983C59.378 18.727 58.643 17.329 57.69 17.306C56.49 17.276 55.628 19.564 55.356 20.806C54.931 22.745 55.219 22.7821 55.219 22.7821" stroke="black" stroke-width="0.8" stroke-miterlimit="10" stroke-linecap="round"/>
</g>
</g>
</g>
</g>
<path d="M57.1429 24.303C55.224 22.2565 52.9508 20.5741 50.433 19.3369C46.1608 17.2399 41.3785 16.4074 36.649 16.937C33.713 17.211 24.817 17.906 18.109 29.178C18.0608 29.2817 18.0454 29.3977 18.0643 29.5105C18.0832 29.6233 18.1356 29.7277 18.2149 29.81C20.1235 32.1105 22.3524 34.1253 24.8331 35.7929C25.1871 36.0309 30.8451 39.7929 31.8331 38.7109C32.9481 37.4949 27.2861 31.078 28.0411 30.396C28.4871 29.996 30.5741 32.138 33.0001 33.605C41.1941 38.561 51.742 34.871 53.276 34.334C58.5187 32.4593 63.103 29.1002 66.4701 24.666C66.5246 24.5947 66.5632 24.5126 66.5831 24.425C66.6664 24.1826 66.6935 23.9244 66.6624 23.6699C66.6314 23.4154 66.5432 23.1714 66.4041 22.956C65.8501 22.395 64.3039 22.656 62.7569 23.977C63.7429 23.1147 64.5592 22.0759 65.1639 20.914C65.7359 19.807 67.1789 17.0141 65.8929 15.1521C65.6653 14.8233 65.3736 14.5439 65.0352 14.3308C64.6969 14.1177 64.3188 13.9753 63.9239 13.9121C62.5069 13.8261 60.9121 15.3621 59.8541 17.9761C59.8084 18.0906 59.7307 18.1893 59.6302 18.2607C59.5297 18.3321 59.4106 18.373 59.2874 18.3784C59.1643 18.3838 59.0422 18.3536 58.9359 18.2912C58.8295 18.2289 58.7436 18.1372 58.6881 18.0271L58.672 17.9961C58.537 17.7401 57.802 16.3421 56.849 16.3191C55.649 16.2891 54.787 18.5771 54.515 19.8191C54.09 21.7581 54.378 21.7949 54.378 21.7949" fill="#FFFEFF"/>
<path d="M57.1429 24.303C55.224 22.2565 52.9508 20.5741 50.433 19.3369C46.1608 17.2399 41.3785 16.4074 36.649 16.937C33.713 17.211 24.817 17.906 18.109 29.178C18.0608 29.2817 18.0454 29.3977 18.0643 29.5105C18.0832 29.6233 18.1356 29.7277 18.2149 29.81C20.1235 32.1105 22.3524 34.1253 24.8331 35.7929C25.1871 36.0309 30.8451 39.7929 31.8331 38.7109C32.9481 37.4949 27.2861 31.078 28.0411 30.396C28.4871 29.996 30.5741 32.138 33.0001 33.605C41.1941 38.561 51.742 34.871 53.276 34.334C58.5187 32.4593 63.103 29.1002 66.4701 24.666C66.5246 24.5947 66.5632 24.5126 66.5831 24.425C66.6664 24.1826 66.6935 23.9244 66.6624 23.6699C66.6314 23.4154 66.5432 23.1714 66.4041 22.956C65.8501 22.395 64.3039 22.656 62.7569 23.977C63.7429 23.1147 64.5592 22.0759 65.1639 20.914C65.7359 19.807 67.1789 17.0141 65.8929 15.1521C65.6653 14.8233 65.3736 14.5439 65.0352 14.3308C64.6969 14.1177 64.3188 13.9753 63.9239 13.9121C62.5069 13.8261 60.9121 15.3621 59.8541 17.9761C59.8084 18.0906 59.7307 18.1893 59.6302 18.2607C59.5297 18.3321 59.4106 18.373 59.2874 18.3784C59.1643 18.3838 59.0422 18.3536 58.9359 18.2912C58.8295 18.2289 58.7436 18.1372 58.6881 18.0271L58.672 17.9961C58.537 17.7401 57.802 16.3421 56.849 16.3191C55.649 16.2891 54.787 18.5771 54.515 19.8191C54.09 21.7581 54.378 21.7949 54.378 21.7949" stroke="#707070" stroke-width="0.8"/>
<path d="M57.1429 24.303C55.224 22.2565 52.9508 20.5741 50.433 19.3369C46.1608 17.2399 41.3785 16.4074 36.649 16.937C33.713 17.211 24.817 17.906 18.109 29.178C18.0608 29.2817 18.0454 29.3977 18.0643 29.5105C18.0832 29.6233 18.1356 29.7277 18.2149 29.81C20.1235 32.1105 22.3524 34.1253 24.8331 35.7929C25.1871 36.0309 30.8451 39.7929 31.8331 38.7109C32.9481 37.4949 27.2861 31.078 28.0411 30.396C28.4871 29.996 30.5741 32.138 33.0001 33.605C41.1941 38.561 51.742 34.871 53.276 34.334C58.5187 32.4593 63.103 29.1002 66.4701 24.666C66.5246 24.5947 66.5632 24.5126 66.5831 24.425C66.6664 24.1826 66.6935 23.9244 66.6624 23.6699C66.6314 23.4154 66.5432 23.1714 66.4041 22.956C65.8501 22.395 64.3039 22.656 62.7569 23.977C63.7429 23.1147 64.5592 22.0759 65.1639 20.914C65.7359 19.807 67.1789 17.0141 65.8929 15.1521C65.6653 14.8233 65.3736 14.5439 65.0352 14.3308C64.6969 14.1177 64.3188 13.9753 63.9239 13.9121C62.5069 13.8261 60.9121 15.3621 59.8541 17.9761C59.8084 18.0906 59.7307 18.1893 59.6302 18.2607C59.5297 18.3321 59.4106 18.373 59.2874 18.3784C59.1643 18.3838 59.0422 18.3536 58.9359 18.2912C58.8295 18.2289 58.7436 18.1372 58.6881 18.0271L58.672 17.9961C58.537 17.7401 57.802 16.3421 56.849 16.3191C55.649 16.2891 54.787 18.5771 54.515 19.8191C54.09 21.7581 54.378 21.7949 54.378 21.7949" stroke="#12100E" stroke-width="0.8" stroke-miterlimit="10" stroke-linecap="round"/>
<path d="M28.427 22.7589C30.283 23.1029 32.062 23.479 33.875 23.945C34.7561 24.2382 35.6588 24.4615 36.575 24.6129C38.4247 24.7223 40.2797 24.525 42.065 24.0289C43.838 23.6041 45.5832 23.0699 47.2901 22.4291C48.1691 22.0991 49.039 21.7201 49.939 21.3561L49.989 21.4301L49.949 21.4711C49.2653 22.1437 48.5032 22.7316 47.679 23.2221C45.5988 24.4588 43.2353 25.1391 40.8159 25.1979C39.8619 25.2209 38.909 25.1201 37.96 25.0531C36.538 24.9211 35.1189 25.002 33.6909 24.862C32.7475 24.7293 31.8217 24.4918 30.9309 24.1539C30.0091 23.8296 29.1349 23.3837 28.3311 22.828L28.364 22.7479L28.427 22.7589Z" fill="#12100E"/>
<path d="M23.1891 24.2989C25.6907 25.787 28.2942 27.0971 30.9801 28.219C32.301 28.8384 33.6753 29.3371 35.086 29.709C36.1567 29.9586 37.2473 30.1138 38.3451 30.1729C39.5831 30.2729 40.932 30.2069 42.171 30.1819C47.0841 29.8934 51.9639 29.1911 56.7589 28.0821L56.815 28.0711L56.846 28.1641L56.795 28.189C54.1072 29.4751 51.2456 30.3604 48.3011 30.8169C47.1948 30.9867 46.0795 31.0927 44.961 31.1341C43.8428 31.1821 42.7228 31.1687 41.606 31.094C40.848 31.053 39.867 30.901 39.106 30.794C38.486 30.674 37.8061 30.5691 37.1891 30.4581C34.3181 29.8951 31.207 29.5911 28.566 28.2581C26.5358 27.3 24.6906 25.991 23.1151 24.3919L23.076 24.3509L23.1351 24.2759L23.1891 24.2989Z" fill="#12100E"/>
<path d="M54.984 46.9001C54.962 47.4761 54.6322 47.9312 54.2482 47.9162C53.8642 47.9012 53.5712 47.4222 53.5922 46.8462C53.6132 46.2702 53.944 45.815 54.328 45.83C54.712 45.845 55.005 46.3241 54.983 46.9001" fill="#49340D"/>
<path d="M57.228 48.406C57.466 49.106 57.386 49.7581 57.048 49.8741C56.71 49.9901 56.2478 49.52 56.0058 48.825C55.7638 48.13 55.848 47.473 56.186 47.357C56.524 47.241 56.986 47.711 57.228 48.407" fill="#49340D"/>
<path d="M58.6301 45.5429C58.6091 46.0769 58.3761 46.5019 58.1091 46.4909C57.8421 46.4799 57.642 46.039 57.663 45.505C57.684 44.971 57.917 44.5461 58.184 44.5561C58.451 44.5661 58.6511 45.0079 58.6301 45.5429Z" fill="#49340D"/>
<path d="M23.277 45.041C23.251 45.72 22.8139 46.2551 22.3019 46.2341C22.0202 46.178 21.7712 46.0149 21.6071 45.779C21.443 45.5432 21.3767 45.2527 21.4221 44.969C21.4481 44.29 21.8849 43.7551 22.3969 43.7751C22.6786 43.8317 22.9276 43.9952 23.0915 44.2312C23.2554 44.4672 23.3215 44.7573 23.2761 45.041" fill="#49340D"/>
<path d="M24.088 48.1611C24.0535 48.2769 23.9872 48.3806 23.8966 48.4606C23.806 48.5407 23.6948 48.5938 23.5756 48.6137C23.4564 48.6337 23.334 48.6196 23.2223 48.5734C23.1106 48.5273 23.0141 48.4508 22.9437 48.3525C22.8734 48.2542 22.832 48.1382 22.8244 48.0175C22.8167 47.8969 22.843 47.7765 22.9003 47.6701C22.9576 47.5637 23.0436 47.4754 23.1486 47.4155C23.2535 47.3555 23.3733 47.3263 23.494 47.331C23.6815 47.365 23.8485 47.4708 23.9594 47.6257C24.0703 47.7806 24.1163 47.9727 24.088 48.1611" fill="#49340D"/>
<path d="M25.8429 45.5238C25.8209 46.0808 25.5429 46.5239 25.2189 46.5089C24.8949 46.4939 24.6519 46.0349 24.6739 45.4779C24.6959 44.9209 24.974 44.4778 25.298 44.4928C25.622 44.5078 25.8659 44.9678 25.8439 45.5238" fill="#49340D"/>
</svg>
