<svg width="79" height="79" viewBox="0 0 79 79" fill="none" xmlns="http://www.w3.org/2000/svg">
<path d="M39.4902 16.7421C34.709 16.7419 30.0349 18.1594 26.0594 20.8156C22.0838 23.4717 18.9853 27.2472 17.1554 31.6644C15.3256 36.0816 14.8468 40.9421 15.7795 45.6315C16.7121 50.3208 19.0143 54.6283 22.3951 58.0092C25.7758 61.39 30.0833 63.6925 34.7726 64.6254C39.462 65.5582 44.3226 65.0795 48.7399 63.2499C53.1572 61.4202 56.9327 58.322 59.589 54.3466C62.2454 50.3711 63.663 45.6971 63.663 40.9159C63.6561 34.5068 61.1072 28.3624 56.5754 23.8304C52.0436 19.2985 45.8992 16.7492 39.4902 16.7421" fill="#F8CFA0"/>
<path d="M39.4902 16.7421C34.709 16.7419 30.0349 18.1594 26.0594 20.8156C22.0838 23.4717 18.9853 27.2472 17.1554 31.6644C15.3256 36.0816 14.8468 40.9421 15.7795 45.6315C16.7121 50.3208 19.0143 54.6283 22.3951 58.0092C25.7758 61.39 30.0833 63.6925 34.7726 64.6254C39.462 65.5582 44.3226 65.0795 48.7399 63.2499C53.1572 61.4202 56.9327 58.322 59.589 54.3466C62.2454 50.3711 63.663 45.6971 63.663 40.9159C63.6561 34.5068 61.1072 28.3624 56.5754 23.8304C52.0436 19.2985 45.8992 16.7492 39.4902 16.7421" stroke="#707070" stroke-width="0.8"/>
<path d="M39.49 65.09C52.8409 65.09 63.664 54.2669 63.664 40.916C63.664 27.5651 52.8409 16.742 39.49 16.742C26.1391 16.742 15.316 27.5651 15.316 40.916C15.316 54.2669 26.1391 65.09 39.49 65.09Z" stroke="black" stroke-width="0.8" stroke-miterlimit="10"/>
<g opacity="0.2">
<g opacity="0.2">
<g opacity="0.2">
<path opacity="0.2" d="M58.7951 27.442C61.3076 32.7826 61.727 38.871 59.9704 44.5057C58.2138 50.1403 54.4089 54.912 49.3066 57.8787C44.2043 60.8455 38.1753 61.792 32.4094 60.5313C26.6435 59.2706 21.5597 55.8943 18.1611 51.0689C19.5515 54.0318 21.5429 56.673 24.0092 58.8245C26.4755 60.9761 29.3627 62.5911 32.4868 63.5667C35.6109 64.5423 38.9036 64.8571 42.1559 64.4913C45.4083 64.1255 48.549 63.0871 51.3784 61.442C54.2077 59.7968 56.664 57.5808 58.5908 54.9351C60.5175 52.2895 61.8727 49.272 62.5703 46.0743C63.2678 42.8766 63.2922 39.5688 62.6423 36.3611C61.9924 33.1534 60.6823 30.1159 58.7951 27.442" fill="#FDA502"/>
</g>
</g>
</g>
<path d="M31.5658 40.152C30.7438 40.1533 29.9366 40.3702 29.2245 40.7809C28.5125 41.1917 27.9206 41.7821 27.508 42.4931C27.3938 42.6903 27.3626 42.9245 27.4213 43.1447C27.48 43.3649 27.6238 43.5528 27.821 43.6669C28.0181 43.7811 28.2526 43.8123 28.4728 43.7536C28.693 43.6949 28.8809 43.5511 28.995 43.3539C29.2555 42.9027 29.63 42.5281 30.0812 42.2675C30.5324 42.007 31.0443 41.8698 31.5653 41.8698C32.0864 41.8698 32.5982 42.007 33.0495 42.2675C33.5007 42.5281 33.8754 42.9027 34.1359 43.3539C34.2519 43.5473 34.4391 43.6874 34.6574 43.7438C34.8756 43.8003 35.1075 43.7686 35.3026 43.6557C35.4978 43.5428 35.6407 43.3577 35.7006 43.1403C35.7605 42.923 35.7327 42.691 35.623 42.4941C35.2106 41.783 34.619 41.1924 33.9071 40.7814C33.1953 40.3705 32.3878 40.1536 31.5658 40.152" fill="#12100E"/>
<path d="M47.415 40.152C46.5931 40.1535 45.7861 40.3704 45.0742 40.7812C44.3623 41.192 43.7707 41.7822 43.3581 42.4931C43.251 42.6897 43.2247 42.9203 43.2851 43.1359C43.3456 43.3516 43.4879 43.5351 43.6816 43.6474C43.8754 43.7597 44.1054 43.7918 44.3225 43.737C44.5396 43.6822 44.7269 43.5447 44.8442 43.3539C45.1047 42.9027 45.4792 42.5281 45.9304 42.2675C46.3816 42.007 46.8935 41.8698 47.4145 41.8698C47.9356 41.8698 48.4475 42.007 48.8987 42.2675C49.3499 42.5281 49.7246 42.9027 49.9851 43.3539C50.1011 43.5473 50.2883 43.6874 50.5066 43.7438C50.7248 43.8003 50.9567 43.7686 51.1518 43.6557C51.347 43.5428 51.4899 43.3577 51.5498 43.1403C51.6097 42.923 51.5819 42.691 51.4722 42.4941C51.0598 41.783 50.468 41.1924 49.7561 40.7814C49.0442 40.3705 48.237 40.1536 47.415 40.152" fill="#12100E"/>
<g style="mix-blend-mode:multiply" opacity="0.2">
<g style="mix-blend-mode:multiply" opacity="0.2">
<g style="mix-blend-mode:multiply" opacity="0.2">
<g style="mix-blend-mode:multiply" opacity="0.2">
<path d="M58.0969 25.286C56.178 23.2398 53.9048 21.5579 51.387 20.3211C47.1148 18.2241 42.3325 17.3912 37.603 17.921C34.667 18.195 25.771 18.8899 19.063 30.1629C19.0149 30.2667 18.9994 30.3826 19.0183 30.4954C19.0372 30.6082 19.0896 30.7126 19.1689 30.795C21.0777 33.0954 23.3065 35.1101 25.7871 36.7779C26.1411 37.0159 31.7991 40.7781 32.7871 39.6961C33.9021 38.4801 28.2401 32.0629 28.9951 31.3809C29.4411 30.9809 31.5281 33.1229 33.9541 34.5899C42.1481 39.5459 52.696 35.8559 54.23 35.3189C59.4728 33.4446 64.0572 30.0855 67.4241 25.651C67.4786 25.5797 67.5172 25.4975 67.5371 25.41C67.6205 25.1677 67.6477 24.9097 67.6167 24.6553C67.5857 24.401 67.4973 24.1571 67.3582 23.942C66.8042 23.38 65.2579 23.642 63.7109 24.963C64.6968 24.1005 65.5131 23.0618 66.1179 21.9C66.6899 20.793 68.1329 18 66.8469 16.138C66.6195 15.8091 66.3279 15.5296 65.9895 15.3165C65.6511 15.1034 65.2729 14.961 64.8779 14.898C63.4609 14.812 61.8651 16.348 60.8081 18.962C60.7625 19.0765 60.6847 19.1753 60.5842 19.2467C60.4837 19.318 60.3646 19.3589 60.2415 19.3643C60.1183 19.3697 59.9962 19.3395 59.8899 19.2772C59.7835 19.2148 59.6976 19.1231 59.6421 19.013L59.626 18.983C59.491 18.727 58.756 17.329 57.803 17.306C56.603 17.276 55.741 19.564 55.469 20.806C55.044 22.745 55.332 22.7821 55.332 22.7821" fill="black"/>
<path d="M58.0969 25.286C56.178 23.2398 53.9048 21.5579 51.387 20.3211C47.1148 18.2241 42.3325 17.3912 37.603 17.921C34.667 18.195 25.771 18.8899 19.063 30.1629C19.0149 30.2667 18.9994 30.3826 19.0183 30.4954C19.0372 30.6082 19.0896 30.7126 19.1689 30.795C21.0777 33.0954 23.3065 35.1101 25.7871 36.7779C26.1411 37.0159 31.7991 40.7781 32.7871 39.6961C33.9021 38.4801 28.2401 32.0629 28.9951 31.3809C29.4411 30.9809 31.5281 33.1229 33.9541 34.5899C42.1481 39.5459 52.696 35.8559 54.23 35.3189C59.4728 33.4446 64.0572 30.0855 67.4241 25.651C67.4786 25.5797 67.5172 25.4975 67.5371 25.41C67.6205 25.1677 67.6477 24.9097 67.6167 24.6553C67.5857 24.401 67.4973 24.1571 67.3582 23.942C66.8042 23.38 65.2579 23.642 63.7109 24.963C64.6968 24.1005 65.5131 23.0618 66.1179 21.9C66.6899 20.793 68.1329 18 66.8469 16.138C66.6195 15.8091 66.3279 15.5296 65.9895 15.3165C65.6511 15.1034 65.2729 14.961 64.8779 14.898C63.4609 14.812 61.8651 16.348 60.8081 18.962C60.7625 19.0765 60.6847 19.1753 60.5842 19.2467C60.4837 19.318 60.3646 19.3589 60.2415 19.3643C60.1183 19.3697 59.9962 19.3395 59.8899 19.2772C59.7835 19.2148 59.6976 19.1231 59.6421 19.013L59.626 18.983C59.491 18.727 58.756 17.329 57.803 17.306C56.603 17.276 55.741 19.564 55.469 20.806C55.044 22.745 55.332 22.7821 55.332 22.7821" stroke="#707070" stroke-width="0.8"/>
</g>
<g style="mix-blend-mode:multiply" opacity="0.2">
<path d="M58.0969 25.286C56.178 23.2398 53.9048 21.5579 51.387 20.3211C47.1148 18.2241 42.3325 17.3912 37.603 17.921C34.667 18.195 25.771 18.8899 19.063 30.1629C19.0149 30.2667 18.9994 30.3826 19.0183 30.4954C19.0372 30.6082 19.0896 30.7126 19.1689 30.795C21.0777 33.0954 23.3065 35.1101 25.7871 36.7779C26.1411 37.0159 31.7991 40.7781 32.7871 39.6961C33.9021 38.4801 28.2401 32.0629 28.9951 31.3809C29.4411 30.9809 31.5281 33.1229 33.9541 34.5899C42.1481 39.5459 52.696 35.8559 54.23 35.3189C59.4728 33.4446 64.0572 30.0855 67.4241 25.651C67.4786 25.5797 67.5172 25.4975 67.5371 25.41C67.6205 25.1677 67.6477 24.9097 67.6167 24.6553C67.5857 24.401 67.4973 24.1571 67.3582 23.942C66.8042 23.38 65.2579 23.642 63.7109 24.963C64.6968 24.1005 65.5131 23.0618 66.1179 21.9C66.6899 20.793 68.1329 18 66.8469 16.138C66.6195 15.8091 66.3279 15.5296 65.9895 15.3165C65.6511 15.1034 65.2729 14.961 64.8779 14.898C63.4609 14.812 61.8651 16.348 60.8081 18.962C60.7625 19.0765 60.6847 19.1753 60.5842 19.2467C60.4837 19.318 60.3646 19.3589 60.2415 19.3643C60.1183 19.3697 59.9962 19.3395 59.8899 19.2772C59.7835 19.2148 59.6976 19.1231 59.6421 19.013L59.626 18.983C59.491 18.727 58.756 17.329 57.803 17.306C56.603 17.276 55.741 19.564 55.469 20.806C55.044 22.745 55.332 22.7821 55.332 22.7821" stroke="black" stroke-width="0.8" stroke-miterlimit="10" stroke-linecap="round"/>
</g>
</g>
</g>
</g>
<path d="M57.2559 24.303C55.337 22.2565 53.0638 20.5741 50.546 19.3369C46.2738 17.2399 41.4915 16.4074 36.762 16.937C33.826 17.211 24.93 17.906 18.222 29.178C18.1739 29.2817 18.1584 29.3977 18.1773 29.5105C18.1962 29.6233 18.2486 29.7277 18.3279 29.81C20.2365 32.1105 22.4654 34.1253 24.9461 35.7929C25.3001 36.0309 30.9581 39.7929 31.9461 38.7109C33.0611 37.4949 27.3991 31.078 28.1541 30.396C28.6001 29.996 30.6871 32.138 33.1131 33.605C41.3071 38.561 51.855 34.871 53.389 34.334C58.6317 32.4593 63.216 29.1002 66.5831 24.666C66.6376 24.5947 66.6762 24.5126 66.6961 24.425C66.7794 24.1826 66.8065 23.9244 66.7755 23.6699C66.7444 23.4154 66.6562 23.1714 66.5172 22.956C65.9632 22.395 64.4169 22.656 62.8699 23.977C63.8559 23.1147 64.6722 22.0759 65.2769 20.914C65.8489 19.807 67.2919 17.0141 66.0059 15.1521C65.7783 14.8233 65.4866 14.5439 65.1483 14.3308C64.8099 14.1177 64.4318 13.9753 64.0369 13.9121C62.6199 13.8261 61.0251 15.3621 59.9671 17.9761C59.9214 18.0906 59.8437 18.1893 59.7432 18.2607C59.6427 18.3321 59.5236 18.373 59.4005 18.3784C59.2773 18.3838 59.1552 18.3536 59.0489 18.2912C58.9425 18.2289 58.8566 18.1372 58.8011 18.0271L58.785 17.9961C58.65 17.7401 57.915 16.3421 56.962 16.3191C55.762 16.2891 54.9 18.5771 54.628 19.8191C54.203 21.7581 54.491 21.7949 54.491 21.7949" fill="#FFFEFF"/>
<path d="M57.2559 24.303C55.337 22.2565 53.0638 20.5741 50.546 19.3369C46.2738 17.2399 41.4915 16.4074 36.762 16.937C33.826 17.211 24.93 17.906 18.222 29.178C18.1739 29.2817 18.1584 29.3977 18.1773 29.5105C18.1962 29.6233 18.2486 29.7277 18.3279 29.81C20.2365 32.1105 22.4654 34.1253 24.9461 35.7929C25.3001 36.0309 30.9581 39.7929 31.9461 38.7109C33.0611 37.4949 27.3991 31.078 28.1541 30.396C28.6001 29.996 30.6871 32.138 33.1131 33.605C41.3071 38.561 51.855 34.871 53.389 34.334C58.6317 32.4593 63.216 29.1002 66.5831 24.666C66.6376 24.5947 66.6762 24.5126 66.6961 24.425C66.7794 24.1826 66.8065 23.9244 66.7755 23.6699C66.7444 23.4154 66.6562 23.1714 66.5172 22.956C65.9632 22.395 64.4169 22.656 62.8699 23.977C63.8559 23.1147 64.6722 22.0759 65.2769 20.914C65.8489 19.807 67.2919 17.0141 66.0059 15.1521C65.7783 14.8233 65.4866 14.5439 65.1483 14.3308C64.8099 14.1177 64.4318 13.9753 64.0369 13.9121C62.6199 13.8261 61.0251 15.3621 59.9671 17.9761C59.9214 18.0906 59.8437 18.1893 59.7432 18.2607C59.6427 18.3321 59.5236 18.373 59.4005 18.3784C59.2773 18.3838 59.1552 18.3536 59.0489 18.2912C58.9425 18.2289 58.8566 18.1372 58.8011 18.0271L58.785 17.9961C58.65 17.7401 57.915 16.3421 56.962 16.3191C55.762 16.2891 54.9 18.5771 54.628 19.8191C54.203 21.7581 54.491 21.7949 54.491 21.7949" stroke="#707070" stroke-width="0.8"/>
<path d="M57.2559 24.303C55.337 22.2565 53.0638 20.5741 50.546 19.3369C46.2738 17.2399 41.4915 16.4074 36.762 16.937C33.826 17.211 24.93 17.906 18.222 29.178C18.1739 29.2817 18.1584 29.3977 18.1773 29.5105C18.1962 29.6233 18.2486 29.7277 18.3279 29.81C20.2365 32.1105 22.4654 34.1253 24.9461 35.7929C25.3001 36.0309 30.9581 39.7929 31.9461 38.7109C33.0611 37.4949 27.3991 31.078 28.1541 30.396C28.6001 29.996 30.6871 32.138 33.1131 33.605C41.3071 38.561 51.855 34.871 53.389 34.334C58.6317 32.4593 63.216 29.1002 66.5831 24.666C66.6376 24.5947 66.6762 24.5126 66.6961 24.425C66.7794 24.1826 66.8065 23.9244 66.7755 23.6699C66.7444 23.4154 66.6562 23.1714 66.5172 22.956C65.9632 22.395 64.4169 22.656 62.8699 23.977C63.8559 23.1147 64.6722 22.0759 65.2769 20.914C65.8489 19.807 67.2919 17.0141 66.0059 15.1521C65.7783 14.8233 65.4866 14.5439 65.1483 14.3308C64.8099 14.1177 64.4318 13.9753 64.0369 13.9121C62.6199 13.8261 61.0251 15.3621 59.9671 17.9761C59.9214 18.0906 59.8437 18.1893 59.7432 18.2607C59.6427 18.3321 59.5236 18.373 59.4005 18.3784C59.2773 18.3838 59.1552 18.3536 59.0489 18.2912C58.9425 18.2289 58.8566 18.1372 58.8011 18.0271L58.785 17.9961C58.65 17.7401 57.915 16.3421 56.962 16.3191C55.762 16.2891 54.9 18.5771 54.628 19.8191C54.203 21.7581 54.491 21.7949 54.491 21.7949" stroke="#12100E" stroke-width="0.8" stroke-miterlimit="10" stroke-linecap="round"/>
<path d="M28.54 22.7589C30.396 23.1029 32.175 23.479 33.988 23.945C34.8691 24.2382 35.7718 24.4616 36.688 24.6129C38.5377 24.7224 40.3927 24.525 42.178 24.029C43.951 23.6042 45.6962 23.0699 47.4031 22.4291C48.2821 22.0991 49.152 21.7201 50.052 21.3561L50.1021 21.4301L50.062 21.4711C49.3783 22.1437 48.6162 22.7316 47.792 23.2221C45.7118 24.4588 43.3483 25.1391 40.929 25.1979C39.975 25.2209 39.022 25.1201 38.073 25.0531C36.651 24.9211 35.232 25.002 33.804 24.862C32.8605 24.7293 31.9348 24.4919 31.0439 24.154C30.1221 23.8296 29.2479 23.3838 28.4441 22.828L28.4771 22.748L28.54 22.7589Z" fill="#12100E"/>
<path d="M23.3021 24.2989C25.8037 25.787 28.4072 27.0971 31.0931 28.2191C32.4141 28.8384 33.7883 29.3371 35.199 29.709C36.2697 29.9586 37.3603 30.1138 38.4581 30.1729C39.6961 30.2729 41.045 30.2069 42.284 30.1819C47.1971 29.8935 52.0769 29.1911 56.8719 28.0821L56.928 28.0711L56.959 28.1641L56.908 28.189C54.2202 29.4751 51.3586 30.3604 48.4141 30.817C47.3078 30.9867 46.1925 31.0927 45.074 31.1341C43.9558 31.1821 42.8358 31.1687 41.7191 31.0941C40.9611 31.0531 39.9801 30.901 39.2191 30.794C38.5991 30.674 37.9191 30.5691 37.3021 30.4581C34.4311 29.8951 31.32 29.5911 28.679 28.2581C26.6488 27.3 24.8036 25.9911 23.2281 24.3919L23.189 24.3509L23.2481 24.2759L23.3021 24.2989Z" fill="#12100E"/>
<path d="M55.097 46.9001C55.075 47.4761 54.7452 47.9312 54.3612 47.9162C53.9772 47.9012 53.6842 47.4222 53.7052 46.8462C53.7262 46.2702 54.057 45.815 54.441 45.83C54.825 45.845 55.118 46.3241 55.096 46.9001" fill="#49340D"/>
<path d="M57.341 48.406C57.579 49.106 57.4991 49.7581 57.1611 49.8741C56.8231 49.9901 56.3608 49.52 56.1188 48.825C55.8768 48.13 55.961 47.473 56.299 47.357C56.637 47.241 57.099 47.711 57.341 48.407" fill="#49340D"/>
<path d="M58.7431 45.5429C58.7221 46.0769 58.4891 46.5019 58.2221 46.4909C57.9551 46.4799 57.755 46.039 57.776 45.505C57.797 44.971 58.03 44.5461 58.297 44.5561C58.564 44.5661 58.7641 45.0079 58.7431 45.5429Z" fill="#49340D"/>
<path d="M23.39 45.041C23.364 45.72 22.9269 46.2551 22.4149 46.2341C22.1331 46.178 21.8842 46.0149 21.7201 45.779C21.556 45.5432 21.4897 45.2527 21.5351 44.969C21.5611 44.29 21.9979 43.7551 22.5099 43.7751C22.7916 43.8317 23.0406 43.9952 23.2045 44.2312C23.3684 44.4672 23.4345 44.7573 23.3891 45.041" fill="#49340D"/>
<path d="M24.201 48.1611C24.1665 48.2769 24.1002 48.3806 24.0096 48.4606C23.919 48.5407 23.8078 48.5938 23.6886 48.6137C23.5694 48.6337 23.447 48.6196 23.3353 48.5734C23.2236 48.5273 23.1271 48.4508 23.0568 48.3525C22.9864 48.2542 22.945 48.1382 22.9374 48.0175C22.9297 47.8969 22.956 47.7765 23.0133 47.6701C23.0706 47.5637 23.1566 47.4754 23.2616 47.4155C23.3666 47.3555 23.4863 47.3263 23.607 47.331C23.7945 47.365 23.9615 47.4707 24.0724 47.6257C24.1833 47.7806 24.2293 47.9727 24.201 48.1611" fill="#49340D"/>
<path d="M25.9559 45.5238C25.9339 46.0808 25.6559 46.5239 25.3319 46.5089C25.0079 46.4939 24.7649 46.0349 24.7869 45.4779C24.8089 44.9209 25.087 44.4778 25.411 44.4928C25.735 44.5078 25.9789 44.9678 25.9569 45.5238" fill="#49340D"/>
<path d="M42.9939 52.7928C42.9939 52.7928 40.185 52.7689 39.251 52.8109C38.317 52.8529 35.515 53.42 35.515 53.42C35.295 53.43 35.128 53.7059 35.142 54.0389C35.156 54.3719 35.342 54.339 35.565 54.33C35.565 54.33 38.365 54.058 39.302 54.016C40.239 53.974 43.047 53.9979 43.047 53.9979C43.266 53.9879 43.433 53.7098 43.418 53.3768C43.403 53.0438 43.218 52.7838 42.995 52.7928" fill="#12100E"/>
</svg>
