<svg width="79" height="79" viewBox="0 0 79 79" fill="none" xmlns="http://www.w3.org/2000/svg">
<path d="M39.6561 16.7421C34.8749 16.7419 30.2009 18.1594 26.2254 20.8156C22.2498 23.4717 19.1513 27.2472 17.3214 31.6644C15.4916 36.0816 15.0128 40.9421 15.9455 45.6315C16.8781 50.3208 19.1803 54.6283 22.5611 58.0092C25.9418 61.39 30.2493 63.6925 34.9386 64.6254C39.6279 65.5582 44.4886 65.0795 48.9059 63.2499C53.3232 61.4202 57.0987 58.322 59.755 54.3466C62.4113 50.3711 63.829 45.6971 63.829 40.9159C63.8221 34.5068 61.2731 28.3624 56.7414 23.8304C52.2096 19.2985 46.0652 16.7492 39.6561 16.7421" fill="#F8CFA0"/>
<path d="M39.6561 16.7421C34.8749 16.7419 30.2009 18.1594 26.2254 20.8156C22.2498 23.4717 19.1513 27.2472 17.3214 31.6644C15.4916 36.0816 15.0128 40.9421 15.9455 45.6315C16.8781 50.3208 19.1803 54.6283 22.5611 58.0092C25.9418 61.39 30.2493 63.6925 34.9386 64.6254C39.6279 65.5582 44.4886 65.0795 48.9059 63.2499C53.3232 61.4202 57.0987 58.322 59.755 54.3466C62.4113 50.3711 63.829 45.6971 63.829 40.9159C63.8221 34.5068 61.2731 28.3624 56.7414 23.8304C52.2096 19.2985 46.0652 16.7492 39.6561 16.7421" stroke="#707070" stroke-width="0.8"/>
<path d="M39.656 65.09C53.0069 65.09 63.83 54.2669 63.83 40.916C63.83 27.5651 53.0069 16.742 39.656 16.742C26.3051 16.742 15.482 27.5651 15.482 40.916C15.482 54.2669 26.3051 65.09 39.656 65.09Z" stroke="black" stroke-width="0.8" stroke-miterlimit="10"/>
<g opacity="0.2">
<g opacity="0.2">
<g opacity="0.2">
<path opacity="0.2" d="M58.9611 27.442C61.4736 32.7826 61.8929 38.871 60.1364 44.5057C58.3798 50.1403 54.5748 54.912 49.4726 57.8787C44.3703 60.8455 38.3413 61.792 32.5753 60.5313C26.8094 59.2706 21.7257 55.8943 18.3271 51.0689C19.7175 54.0318 21.7089 56.673 24.1752 58.8245C26.6415 60.9761 29.5286 62.5911 32.6527 63.5667C35.7768 64.5423 39.0696 64.8571 42.3219 64.4913C45.5743 64.1255 48.715 63.0871 51.5443 61.442C54.3737 59.7968 56.83 57.5808 58.7567 54.9351C60.6835 52.2895 62.0387 49.272 62.7362 46.0743C63.4338 42.8766 63.4582 39.5688 62.8083 36.3611C62.1583 33.1534 60.8483 30.1159 58.9611 27.442" fill="#FDA502"/>
</g>
</g>
</g>
<path d="M31.7318 40.152C30.9098 40.1533 30.1026 40.3702 29.3905 40.7809C28.6784 41.1917 28.0866 41.7821 27.674 42.4931C27.5598 42.6903 27.5286 42.9245 27.5873 43.1447C27.646 43.3649 27.7898 43.5528 27.9869 43.6669C28.1841 43.7811 28.4186 43.8123 28.6388 43.7536C28.859 43.6949 29.0468 43.5511 29.161 43.3539C29.4215 42.9027 29.796 42.5281 30.2472 42.2675C30.6984 42.007 31.2103 41.8698 31.7313 41.8698C32.2524 41.8698 32.7642 42.007 33.2155 42.2675C33.6667 42.5281 34.0414 42.9027 34.3019 43.3539C34.4179 43.5473 34.6051 43.6874 34.8234 43.7438C35.0416 43.8003 35.2735 43.7686 35.4686 43.6557C35.6638 43.5428 35.8067 43.3577 35.8666 43.1403C35.9265 42.923 35.8987 42.691 35.7889 42.4941C35.3766 41.783 34.785 41.1924 34.0731 40.7814C33.3612 40.3705 32.5538 40.1536 31.7318 40.152" fill="#12100E"/>
<path d="M47.581 40.152C46.7591 40.1535 45.9521 40.3704 45.2402 40.7812C44.5283 41.192 43.9366 41.7822 43.5241 42.4931C43.417 42.6897 43.3907 42.9203 43.4511 43.1359C43.5116 43.3516 43.6539 43.5351 43.8476 43.6474C44.0414 43.7597 44.2714 43.7918 44.4885 43.737C44.7056 43.6822 44.8929 43.5447 45.0102 43.3539C45.2707 42.9027 45.6452 42.5281 46.0964 42.2675C46.5476 42.007 47.0595 41.8698 47.5805 41.8698C48.1016 41.8698 48.6134 42.007 49.0647 42.2675C49.5159 42.5281 49.8906 42.9027 50.1511 43.3539C50.2671 43.5473 50.4543 43.6874 50.6726 43.7438C50.8908 43.8003 51.1227 43.7686 51.3178 43.6557C51.513 43.5428 51.6559 43.3577 51.7158 43.1403C51.7757 42.923 51.7479 42.691 51.6381 42.4941C51.2258 41.783 50.634 41.1924 49.9221 40.7814C49.2102 40.3705 48.403 40.1536 47.581 40.152" fill="#12100E"/>
<g style="mix-blend-mode:multiply" opacity="0.2">
<g style="mix-blend-mode:multiply" opacity="0.2">
<g style="mix-blend-mode:multiply" opacity="0.2">
<g style="mix-blend-mode:multiply" opacity="0.2">
<path d="M58.2629 25.286C56.344 23.2398 54.0707 21.5579 51.5529 20.3211C47.2808 18.2241 42.4985 17.3912 37.769 17.921C34.833 18.195 25.937 18.8899 19.229 30.1629C19.1808 30.2667 19.1654 30.3826 19.1843 30.4954C19.2032 30.6082 19.2556 30.7126 19.3349 30.795C21.2437 33.0954 23.4725 35.1101 25.9531 36.7779C26.3071 37.0159 31.9651 40.7781 32.9531 39.6961C34.0681 38.4801 28.4061 32.0629 29.1611 31.3809C29.6071 30.9809 31.6941 33.1229 34.1201 34.5899C42.3141 39.5459 52.862 35.8559 54.396 35.3189C59.6388 33.4446 64.2232 30.0855 67.5901 25.651C67.6446 25.5797 67.6832 25.4975 67.7031 25.41C67.7865 25.1677 67.8137 24.9097 67.7827 24.6553C67.7517 24.401 67.6633 24.1571 67.5241 23.942C66.9701 23.38 65.4239 23.642 63.8769 24.963C64.8628 24.1005 65.679 23.0618 66.2839 21.9C66.8559 20.793 68.2989 18 67.0129 16.138C66.7855 15.8091 66.4939 15.5296 66.1555 15.3165C65.8171 15.1034 65.4388 14.961 65.0439 14.898C63.6269 14.812 62.0311 16.348 60.9741 18.962C60.9284 19.0765 60.8507 19.1753 60.7502 19.2467C60.6497 19.318 60.5306 19.3589 60.4074 19.3643C60.2843 19.3697 60.1622 19.3395 60.0559 19.2772C59.9495 19.2148 59.8636 19.1231 59.8081 19.013L59.792 18.983C59.657 18.727 58.922 17.329 57.969 17.306C56.769 17.276 55.907 19.564 55.635 20.806C55.21 22.745 55.498 22.7821 55.498 22.7821" fill="black"/>
<path d="M58.2629 25.286C56.344 23.2398 54.0707 21.5579 51.5529 20.3211C47.2808 18.2241 42.4985 17.3912 37.769 17.921C34.833 18.195 25.937 18.8899 19.229 30.1629C19.1808 30.2667 19.1654 30.3826 19.1843 30.4954C19.2032 30.6082 19.2556 30.7126 19.3349 30.795C21.2437 33.0954 23.4725 35.1101 25.9531 36.7779C26.3071 37.0159 31.9651 40.7781 32.9531 39.6961C34.0681 38.4801 28.4061 32.0629 29.1611 31.3809C29.6071 30.9809 31.6941 33.1229 34.1201 34.5899C42.3141 39.5459 52.862 35.8559 54.396 35.3189C59.6388 33.4446 64.2232 30.0855 67.5901 25.651C67.6446 25.5797 67.6832 25.4975 67.7031 25.41C67.7865 25.1677 67.8137 24.9097 67.7827 24.6553C67.7517 24.401 67.6633 24.1571 67.5241 23.942C66.9701 23.38 65.4239 23.642 63.8769 24.963C64.8628 24.1005 65.679 23.0618 66.2839 21.9C66.8559 20.793 68.2989 18 67.0129 16.138C66.7855 15.8091 66.4939 15.5296 66.1555 15.3165C65.8171 15.1034 65.4388 14.961 65.0439 14.898C63.6269 14.812 62.0311 16.348 60.9741 18.962C60.9284 19.0765 60.8507 19.1753 60.7502 19.2467C60.6497 19.318 60.5306 19.3589 60.4074 19.3643C60.2843 19.3697 60.1622 19.3395 60.0559 19.2772C59.9495 19.2148 59.8636 19.1231 59.8081 19.013L59.792 18.983C59.657 18.727 58.922 17.329 57.969 17.306C56.769 17.276 55.907 19.564 55.635 20.806C55.21 22.745 55.498 22.7821 55.498 22.7821" stroke="#707070" stroke-width="0.8"/>
</g>
<g style="mix-blend-mode:multiply" opacity="0.2">
<path d="M58.2629 25.286C56.344 23.2398 54.0707 21.5579 51.5529 20.3211C47.2808 18.2241 42.4985 17.3912 37.769 17.921C34.833 18.195 25.937 18.8899 19.229 30.1629C19.1808 30.2667 19.1654 30.3826 19.1843 30.4954C19.2032 30.6082 19.2556 30.7126 19.3349 30.795C21.2437 33.0954 23.4725 35.1101 25.9531 36.7779C26.3071 37.0159 31.9651 40.7781 32.9531 39.6961C34.0681 38.4801 28.4061 32.0629 29.1611 31.3809C29.6071 30.9809 31.6941 33.1229 34.1201 34.5899C42.3141 39.5459 52.862 35.8559 54.396 35.3189C59.6388 33.4446 64.2232 30.0855 67.5901 25.651C67.6446 25.5797 67.6832 25.4975 67.7031 25.41C67.7865 25.1677 67.8137 24.9097 67.7827 24.6553C67.7517 24.401 67.6633 24.1571 67.5241 23.942C66.9701 23.38 65.4239 23.642 63.8769 24.963C64.8628 24.1005 65.679 23.0618 66.2839 21.9C66.8559 20.793 68.2989 18 67.0129 16.138C66.7855 15.8091 66.4939 15.5296 66.1555 15.3165C65.8171 15.1034 65.4388 14.961 65.0439 14.898C63.6269 14.812 62.0311 16.348 60.9741 18.962C60.9284 19.0765 60.8507 19.1753 60.7502 19.2467C60.6497 19.318 60.5306 19.3589 60.4074 19.3643C60.2843 19.3697 60.1622 19.3395 60.0559 19.2772C59.9495 19.2148 59.8636 19.1231 59.8081 19.013L59.792 18.983C59.657 18.727 58.922 17.329 57.969 17.306C56.769 17.276 55.907 19.564 55.635 20.806C55.21 22.745 55.498 22.7821 55.498 22.7821" stroke="black" stroke-width="0.8" stroke-miterlimit="10" stroke-linecap="round"/>
</g>
</g>
</g>
</g>
<path d="M57.4219 24.303C55.503 22.2565 53.2298 20.5741 50.7119 19.3369C46.4398 17.2399 41.6575 16.4074 36.928 16.937C33.992 17.211 25.096 17.906 18.388 29.178C18.3398 29.2817 18.3244 29.3977 18.3433 29.5105C18.3622 29.6233 18.4146 29.7277 18.4939 29.81C20.4025 32.1105 22.6314 34.1253 25.1121 35.7929C25.4661 36.0309 31.1241 39.7929 32.1121 38.7109C33.2271 37.4949 27.5651 31.078 28.3201 30.396C28.7661 29.996 30.8531 32.138 33.2791 33.605C41.4731 38.561 52.021 34.871 53.555 34.334C58.7976 32.4593 63.3819 29.1002 66.7491 24.666C66.8036 24.5947 66.8422 24.5126 66.8621 24.425C66.9453 24.1826 66.9724 23.9244 66.9414 23.6699C66.9104 23.4154 66.8222 23.1714 66.6831 22.956C66.1291 22.395 64.5829 22.656 63.0359 23.977C64.0219 23.1147 64.8382 22.0759 65.4429 20.914C66.0149 19.807 67.4579 17.0141 66.1719 15.1521C65.9443 14.8233 65.6526 14.5439 65.3142 14.3308C64.9759 14.1177 64.5978 13.9753 64.2029 13.9121C62.7859 13.8261 61.1911 15.3621 60.1331 17.9761C60.0874 18.0906 60.0097 18.1893 59.9092 18.2607C59.8087 18.3321 59.6896 18.373 59.5664 18.3784C59.4433 18.3838 59.3212 18.3536 59.2149 18.2912C59.1085 18.2289 59.0225 18.1372 58.9671 18.0271L58.951 17.9961C58.816 17.7401 58.081 16.3421 57.128 16.3191C55.928 16.2891 55.066 18.5771 54.794 19.8191C54.369 21.7581 54.657 21.7949 54.657 21.7949" fill="#FFFEFF"/>
<path d="M57.4219 24.303C55.503 22.2565 53.2298 20.5741 50.7119 19.3369C46.4398 17.2399 41.6575 16.4074 36.928 16.937C33.992 17.211 25.096 17.906 18.388 29.178C18.3398 29.2817 18.3244 29.3977 18.3433 29.5105C18.3622 29.6233 18.4146 29.7277 18.4939 29.81C20.4025 32.1105 22.6314 34.1253 25.1121 35.7929C25.4661 36.0309 31.1241 39.7929 32.1121 38.7109C33.2271 37.4949 27.5651 31.078 28.3201 30.396C28.7661 29.996 30.8531 32.138 33.2791 33.605C41.4731 38.561 52.021 34.871 53.555 34.334C58.7976 32.4593 63.3819 29.1002 66.7491 24.666C66.8036 24.5947 66.8422 24.5126 66.8621 24.425C66.9453 24.1826 66.9724 23.9244 66.9414 23.6699C66.9104 23.4154 66.8222 23.1714 66.6831 22.956C66.1291 22.395 64.5829 22.656 63.0359 23.977C64.0219 23.1147 64.8382 22.0759 65.4429 20.914C66.0149 19.807 67.4579 17.0141 66.1719 15.1521C65.9443 14.8233 65.6526 14.5439 65.3142 14.3308C64.9759 14.1177 64.5978 13.9753 64.2029 13.9121C62.7859 13.8261 61.1911 15.3621 60.1331 17.9761C60.0874 18.0906 60.0097 18.1893 59.9092 18.2607C59.8087 18.3321 59.6896 18.373 59.5664 18.3784C59.4433 18.3838 59.3212 18.3536 59.2149 18.2912C59.1085 18.2289 59.0225 18.1372 58.9671 18.0271L58.951 17.9961C58.816 17.7401 58.081 16.3421 57.128 16.3191C55.928 16.2891 55.066 18.5771 54.794 19.8191C54.369 21.7581 54.657 21.7949 54.657 21.7949" stroke="#707070" stroke-width="0.8"/>
<path d="M57.4219 24.303C55.503 22.2565 53.2298 20.5741 50.7119 19.3369C46.4398 17.2399 41.6575 16.4074 36.928 16.937C33.992 17.211 25.096 17.906 18.388 29.178C18.3398 29.2817 18.3244 29.3977 18.3433 29.5105C18.3622 29.6233 18.4146 29.7277 18.4939 29.81C20.4025 32.1105 22.6314 34.1253 25.1121 35.7929C25.4661 36.0309 31.1241 39.7929 32.1121 38.7109C33.2271 37.4949 27.5651 31.078 28.3201 30.396C28.7661 29.996 30.8531 32.138 33.2791 33.605C41.4731 38.561 52.021 34.871 53.555 34.334C58.7976 32.4593 63.3819 29.1002 66.7491 24.666C66.8036 24.5947 66.8422 24.5126 66.8621 24.425C66.9453 24.1826 66.9724 23.9244 66.9414 23.6699C66.9104 23.4154 66.8222 23.1714 66.6831 22.956C66.1291 22.395 64.5829 22.656 63.0359 23.977C64.0219 23.1147 64.8382 22.0759 65.4429 20.914C66.0149 19.807 67.4579 17.0141 66.1719 15.1521C65.9443 14.8233 65.6526 14.5439 65.3142 14.3308C64.9759 14.1177 64.5978 13.9753 64.2029 13.9121C62.7859 13.8261 61.1911 15.3621 60.1331 17.9761C60.0874 18.0906 60.0097 18.1893 59.9092 18.2607C59.8087 18.3321 59.6896 18.373 59.5664 18.3784C59.4433 18.3838 59.3212 18.3536 59.2149 18.2912C59.1085 18.2289 59.0225 18.1372 58.9671 18.0271L58.951 17.9961C58.816 17.7401 58.081 16.3421 57.128 16.3191C55.928 16.2891 55.066 18.5771 54.794 19.8191C54.369 21.7581 54.657 21.7949 54.657 21.7949" stroke="#12100E" stroke-width="0.8" stroke-miterlimit="10" stroke-linecap="round"/>
<path d="M28.706 22.7589C30.562 23.1029 32.341 23.479 34.154 23.945C35.0351 24.2382 35.9378 24.4616 36.854 24.6129C38.7037 24.7224 40.5587 24.525 42.344 24.029C44.117 23.6042 45.8621 23.0699 47.5691 22.4291C48.4481 22.0991 49.318 21.7201 50.218 21.3561L50.268 21.4301L50.228 21.4711C49.5443 22.1437 48.7822 22.7316 47.958 23.2221C45.8778 24.4588 43.5143 25.1391 41.0949 25.1979C40.1409 25.2209 39.188 25.1201 38.239 25.0531C36.817 24.9211 35.3979 25.002 33.9699 24.862C33.0265 24.7293 32.1007 24.4919 31.2099 24.154C30.2881 23.8296 29.4139 23.3838 28.6101 22.828L28.643 22.748L28.706 22.7589Z" fill="#12100E"/>
<path d="M23.468 24.2989C25.9697 25.787 28.5732 27.0971 31.2591 28.2191C32.58 28.8384 33.9543 29.3371 35.365 29.709C36.4357 29.9586 37.5262 30.1138 38.6241 30.1729C39.8621 30.2729 41.211 30.2069 42.45 30.1819C47.3631 29.8935 52.2429 29.1911 57.0379 28.0821L57.094 28.0711L57.125 28.1641L57.074 28.189C54.3862 29.4751 51.5246 30.3604 48.5801 30.817C47.4738 30.9867 46.3585 31.0927 45.24 31.1341C44.1218 31.1821 43.0018 31.1687 41.885 31.0941C41.127 31.0531 40.146 30.901 39.385 30.794C38.765 30.674 38.085 30.5691 37.468 30.4581C34.597 29.8951 31.486 29.5911 28.845 28.2581C26.8148 27.3 24.9696 25.9911 23.3941 24.3919L23.355 24.3509L23.4141 24.2759L23.468 24.2989Z" fill="#12100E"/>
<path d="M55.263 46.9001C55.241 47.4761 54.9112 47.9312 54.5272 47.9162C54.1432 47.9012 53.8501 47.4222 53.8711 46.8462C53.8921 46.2702 54.223 45.815 54.607 45.83C54.991 45.845 55.284 46.3241 55.262 46.9001" fill="#49340D"/>
<path d="M57.507 48.406C57.745 49.106 57.665 49.7581 57.327 49.8741C56.989 49.9901 56.5268 49.52 56.2848 48.825C56.0428 48.13 56.127 47.473 56.465 47.357C56.803 47.241 57.265 47.711 57.507 48.407" fill="#49340D"/>
<path d="M58.9091 45.5429C58.8881 46.0769 58.6551 46.5019 58.3881 46.4909C58.1211 46.4799 57.921 46.039 57.942 45.505C57.963 44.971 58.196 44.5461 58.463 44.5561C58.73 44.5661 58.9301 45.0079 58.9091 45.5429Z" fill="#49340D"/>
<path d="M23.556 45.041C23.53 45.72 23.0929 46.2551 22.5809 46.2341C22.2991 46.178 22.0502 46.0149 21.8861 45.779C21.722 45.5432 21.6557 45.2527 21.701 44.969C21.727 44.29 22.1639 43.7551 22.6759 43.7751C22.9576 43.8317 23.2066 43.9952 23.3705 44.2312C23.5343 44.4672 23.6005 44.7573 23.555 45.041" fill="#49340D"/>
<path d="M24.367 48.1611C24.3325 48.2769 24.2662 48.3806 24.1756 48.4606C24.085 48.5407 23.9738 48.5938 23.8546 48.6137C23.7354 48.6337 23.613 48.6196 23.5013 48.5734C23.3896 48.5273 23.2931 48.4508 23.2227 48.3525C23.1524 48.2542 23.111 48.1382 23.1034 48.0175C23.0957 47.8969 23.1219 47.7765 23.1793 47.6701C23.2366 47.5637 23.3226 47.4754 23.4276 47.4155C23.5325 47.3555 23.6522 47.3263 23.773 47.331C23.9605 47.365 24.1275 47.4707 24.2384 47.6257C24.3492 47.7806 24.3953 47.9727 24.367 48.1611" fill="#49340D"/>
<path d="M26.1219 45.5238C26.0999 46.0808 25.8218 46.5239 25.4978 46.5089C25.1738 46.4939 24.9309 46.0349 24.9529 45.4779C24.9749 44.9209 25.2529 44.4778 25.5769 44.4928C25.9009 44.5078 26.1448 44.9678 26.1228 45.5238" fill="#49340D"/>
<path d="M46.908 52.1231C46.8395 52.0832 46.7637 52.0573 46.6852 52.0469C46.6066 52.0365 46.5267 52.0419 46.4502 52.0625C46.3737 52.0832 46.302 52.1188 46.2393 52.1673C46.1766 52.2158 46.1242 52.2761 46.085 52.345C45.4362 53.4761 44.5007 54.4163 43.3728 55.0707C42.2449 55.7251 40.9645 56.0707 39.6605 56.0727C38.3565 56.0746 37.075 55.7328 35.9452 55.0817C34.8154 54.4306 33.8771 53.4932 33.225 52.364C33.1454 52.2256 33.0141 52.1244 32.86 52.0828C32.7058 52.0412 32.5414 52.0624 32.403 52.142C32.2646 52.2216 32.1634 52.353 32.1217 52.5071C32.0801 52.6613 32.1014 52.8256 32.181 52.964C32.9392 54.2764 34.03 55.3659 35.3433 56.1226C36.6566 56.8793 38.1461 57.2766 39.6618 57.2743C41.1776 57.2721 42.6659 56.8704 43.977 56.1099C45.2881 55.3493 46.3756 54.2567 47.13 52.942C47.1698 52.8735 47.1957 52.7978 47.2061 52.7193C47.2165 52.6407 47.2112 52.5608 47.1905 52.4843C47.1699 52.4078 47.1343 52.336 47.0858 52.2733C47.0373 52.2107 46.9769 52.1582 46.908 52.119" fill="#12100E"/>
</svg>
