<svg width="79" height="79" viewBox="0 0 79 79" fill="none" xmlns="http://www.w3.org/2000/svg">
<path d="M39.4222 16.7421C34.641 16.7419 29.9669 18.1594 25.9914 20.8156C22.0159 23.4717 18.9173 27.2472 17.0875 31.6644C15.2576 36.0816 14.7788 40.9421 15.7115 45.6315C16.6441 50.3208 18.9463 54.6283 22.3271 58.0092C25.7078 61.39 30.0153 63.6925 34.7046 64.6254C39.394 65.5582 44.2546 65.0795 48.6719 63.2499C53.0892 61.4202 56.8647 58.322 59.521 54.3466C62.1774 50.3711 63.595 45.6971 63.595 40.9159C63.5881 34.5068 61.0392 28.3624 56.5074 23.8304C51.9756 19.2985 45.8312 16.7492 39.4222 16.7421" fill="#F8CFA0"/>
<path d="M39.4222 16.7421C34.641 16.7419 29.9669 18.1594 25.9914 20.8156C22.0159 23.4717 18.9173 27.2472 17.0875 31.6644C15.2576 36.0816 14.7788 40.9421 15.7115 45.6315C16.6441 50.3208 18.9463 54.6283 22.3271 58.0092C25.7078 61.39 30.0153 63.6925 34.7046 64.6254C39.394 65.5582 44.2546 65.0795 48.6719 63.2499C53.0892 61.4202 56.8647 58.322 59.521 54.3466C62.1774 50.3711 63.595 45.6971 63.595 40.9159C63.5881 34.5068 61.0392 28.3624 56.5074 23.8304C51.9756 19.2985 45.8312 16.7492 39.4222 16.7421" stroke="#707070" stroke-width="0.8"/>
<path d="M39.422 65.09C52.7729 65.09 63.596 54.2669 63.596 40.916C63.596 27.5651 52.7729 16.742 39.422 16.742C26.0711 16.742 15.248 27.5651 15.248 40.916C15.248 54.2669 26.0711 65.09 39.422 65.09Z" stroke="black" stroke-width="0.8" stroke-miterlimit="10"/>
<g opacity="0.2">
<g opacity="0.2">
<g opacity="0.2">
<path opacity="0.2" d="M58.7271 27.442C61.2396 32.7826 61.659 38.871 59.9024 44.5057C58.1458 50.1403 54.3409 54.912 49.2386 57.8787C44.1363 60.8455 38.1073 61.792 32.3414 60.5313C26.5755 59.2706 21.4917 55.8943 18.0931 51.0689C19.4835 54.0318 21.4749 56.673 23.9412 58.8245C26.4075 60.9761 29.2947 62.5911 32.4188 63.5667C35.5429 64.5423 38.8356 64.8571 42.088 64.4913C45.3403 64.1255 48.481 63.0871 51.3104 61.442C54.1397 59.7968 56.596 57.5808 58.5228 54.9351C60.4495 52.2895 61.8047 49.272 62.5023 46.0743C63.1998 42.8766 63.2242 39.5688 62.5743 36.3611C61.9244 33.1534 60.6143 30.1159 58.7271 27.442" fill="#FDA502"/>
</g>
</g>
</g>
<path d="M31.4978 40.152C30.6758 40.1533 29.8686 40.3702 29.1565 40.7809C28.4445 41.1917 27.8526 41.7821 27.44 42.4931C27.3258 42.6903 27.2946 42.9245 27.3533 43.1447C27.412 43.3649 27.5558 43.5528 27.753 43.6669C27.9501 43.7811 28.1846 43.8123 28.4048 43.7536C28.625 43.6949 28.8129 43.5511 28.927 43.3539C29.1875 42.9027 29.562 42.5281 30.0132 42.2675C30.4644 42.007 30.9763 41.8698 31.4973 41.8698C32.0184 41.8698 32.5303 42.007 32.9815 42.2675C33.4327 42.5281 33.8074 42.9027 34.0679 43.3539C34.1839 43.5473 34.3711 43.6874 34.5894 43.7438C34.8076 43.8003 35.0395 43.7686 35.2347 43.6557C35.4298 43.5428 35.5727 43.3577 35.6326 43.1403C35.6925 42.923 35.6647 42.691 35.555 42.4941C35.1426 41.783 34.551 41.1924 33.8391 40.7814C33.1273 40.3705 32.3198 40.1536 31.4978 40.152" fill="#12100E"/>
<path d="M47.347 40.152C46.5252 40.1535 45.7181 40.3704 45.0062 40.7812C44.2943 41.192 43.7027 41.7822 43.2902 42.4931C43.183 42.6897 43.1567 42.9203 43.2172 43.1359C43.2776 43.3516 43.4199 43.5351 43.6136 43.6474C43.8074 43.7597 44.0374 43.7918 44.2545 43.737C44.4716 43.6822 44.659 43.5447 44.7762 43.3539C45.0367 42.9027 45.4112 42.5281 45.8624 42.2675C46.3136 42.007 46.8255 41.8698 47.3465 41.8698C47.8676 41.8698 48.3795 42.007 48.8307 42.2675C49.2819 42.5281 49.6566 42.9027 49.9171 43.3539C50.0331 43.5473 50.2203 43.6874 50.4386 43.7438C50.6569 43.8003 50.8887 43.7686 51.0839 43.6557C51.279 43.5428 51.4219 43.3577 51.4818 43.1403C51.5417 42.923 51.5139 42.691 51.4042 42.4941C50.9918 41.783 50.4 41.1924 49.6881 40.7814C48.9762 40.3705 48.169 40.1536 47.347 40.152" fill="#12100E"/>
<g style="mix-blend-mode:multiply" opacity="0.2">
<g style="mix-blend-mode:multiply" opacity="0.2">
<g style="mix-blend-mode:multiply" opacity="0.2">
<g style="mix-blend-mode:multiply" opacity="0.2">
<path d="M58.0289 25.286C56.11 23.2398 53.8368 21.5579 51.319 20.3211C47.0468 18.2241 42.2645 17.3912 37.535 17.921C34.599 18.195 25.703 18.8899 18.995 30.1629C18.9469 30.2667 18.9314 30.3826 18.9503 30.4954C18.9692 30.6082 19.0216 30.7126 19.101 30.795C21.0097 33.0954 23.2385 35.1101 25.7191 36.7779C26.0731 37.0159 31.7311 40.7781 32.7191 39.6961C33.8341 38.4801 28.1721 32.0629 28.9271 31.3809C29.3731 30.9809 31.4601 33.1229 33.8861 34.5899C42.0801 39.5459 52.628 35.8559 54.162 35.3189C59.4048 33.4446 63.9892 30.0855 67.3561 25.651C67.4106 25.5797 67.4492 25.4975 67.4691 25.41C67.5525 25.1677 67.5797 24.9097 67.5487 24.6553C67.5177 24.401 67.4293 24.1571 67.2902 23.942C66.7362 23.38 65.1899 23.642 63.6429 24.963C64.6288 24.1005 65.4451 23.0618 66.0499 21.9C66.6219 20.793 68.0649 18 66.7789 16.138C66.5515 15.8091 66.2599 15.5296 65.9215 15.3165C65.5831 15.1034 65.2049 14.961 64.8099 14.898C63.3929 14.812 61.7971 16.348 60.7401 18.962C60.6945 19.0765 60.6167 19.1753 60.5162 19.2467C60.4157 19.318 60.2966 19.3589 60.1735 19.3643C60.0503 19.3697 59.9282 19.3395 59.8219 19.2772C59.7156 19.2148 59.6296 19.1231 59.5741 19.013L59.558 18.983C59.423 18.727 58.688 17.329 57.735 17.306C56.535 17.276 55.673 19.564 55.401 20.806C54.976 22.745 55.264 22.7821 55.264 22.7821" fill="black"/>
<path d="M58.0289 25.286C56.11 23.2398 53.8368 21.5579 51.319 20.3211C47.0468 18.2241 42.2645 17.3912 37.535 17.921C34.599 18.195 25.703 18.8899 18.995 30.1629C18.9469 30.2667 18.9314 30.3826 18.9503 30.4954C18.9692 30.6082 19.0216 30.7126 19.101 30.795C21.0097 33.0954 23.2385 35.1101 25.7191 36.7779C26.0731 37.0159 31.7311 40.7781 32.7191 39.6961C33.8341 38.4801 28.1721 32.0629 28.9271 31.3809C29.3731 30.9809 31.4601 33.1229 33.8861 34.5899C42.0801 39.5459 52.628 35.8559 54.162 35.3189C59.4048 33.4446 63.9892 30.0855 67.3561 25.651C67.4106 25.5797 67.4492 25.4975 67.4691 25.41C67.5525 25.1677 67.5797 24.9097 67.5487 24.6553C67.5177 24.401 67.4293 24.1571 67.2902 23.942C66.7362 23.38 65.1899 23.642 63.6429 24.963C64.6288 24.1005 65.4451 23.0618 66.0499 21.9C66.6219 20.793 68.0649 18 66.7789 16.138C66.5515 15.8091 66.2599 15.5296 65.9215 15.3165C65.5831 15.1034 65.2049 14.961 64.8099 14.898C63.3929 14.812 61.7971 16.348 60.7401 18.962C60.6945 19.0765 60.6167 19.1753 60.5162 19.2467C60.4157 19.318 60.2966 19.3589 60.1735 19.3643C60.0503 19.3697 59.9282 19.3395 59.8219 19.2772C59.7156 19.2148 59.6296 19.1231 59.5741 19.013L59.558 18.983C59.423 18.727 58.688 17.329 57.735 17.306C56.535 17.276 55.673 19.564 55.401 20.806C54.976 22.745 55.264 22.7821 55.264 22.7821" stroke="#707070" stroke-width="0.8"/>
</g>
<g style="mix-blend-mode:multiply" opacity="0.2">
<path d="M58.0289 25.286C56.11 23.2398 53.8368 21.5579 51.319 20.3211C47.0468 18.2241 42.2645 17.3912 37.535 17.921C34.599 18.195 25.703 18.8899 18.995 30.1629C18.9469 30.2667 18.9314 30.3826 18.9503 30.4954C18.9692 30.6082 19.0216 30.7126 19.101 30.795C21.0097 33.0954 23.2385 35.1101 25.7191 36.7779C26.0731 37.0159 31.7311 40.7781 32.7191 39.6961C33.8341 38.4801 28.1721 32.0629 28.9271 31.3809C29.3731 30.9809 31.4601 33.1229 33.8861 34.5899C42.0801 39.5459 52.628 35.8559 54.162 35.3189C59.4048 33.4446 63.9892 30.0855 67.3561 25.651C67.4106 25.5797 67.4492 25.4975 67.4691 25.41C67.5525 25.1677 67.5797 24.9097 67.5487 24.6553C67.5177 24.401 67.4293 24.1571 67.2902 23.942C66.7362 23.38 65.1899 23.642 63.6429 24.963C64.6288 24.1005 65.4451 23.0618 66.0499 21.9C66.6219 20.793 68.0649 18 66.7789 16.138C66.5515 15.8091 66.2599 15.5296 65.9215 15.3165C65.5831 15.1034 65.2049 14.961 64.8099 14.898C63.3929 14.812 61.7971 16.348 60.7401 18.962C60.6945 19.0765 60.6167 19.1753 60.5162 19.2467C60.4157 19.318 60.2966 19.3589 60.1735 19.3643C60.0503 19.3697 59.9282 19.3395 59.8219 19.2772C59.7156 19.2148 59.6296 19.1231 59.5741 19.013L59.558 18.983C59.423 18.727 58.688 17.329 57.735 17.306C56.535 17.276 55.673 19.564 55.401 20.806C54.976 22.745 55.264 22.7821 55.264 22.7821" stroke="black" stroke-width="0.8" stroke-miterlimit="10" stroke-linecap="round"/>
</g>
</g>
</g>
</g>
<path d="M57.1879 24.303C55.269 22.2565 52.9958 20.5741 50.478 19.3369C46.2058 17.2399 41.4235 16.4074 36.694 16.937C33.758 17.211 24.862 17.906 18.154 29.178C18.1059 29.2817 18.0904 29.3977 18.1093 29.5105C18.1282 29.6233 18.1806 29.7277 18.2599 29.81C20.1685 32.1105 22.3974 34.1253 24.8781 35.7929C25.2321 36.0309 30.8901 39.7929 31.8781 38.7109C32.9931 37.4949 27.3311 31.078 28.0861 30.396C28.5321 29.996 30.6191 32.138 33.0451 33.605C41.2391 38.561 51.787 34.871 53.321 34.334C58.5637 32.4593 63.148 29.1002 66.5151 24.666C66.5696 24.5947 66.6082 24.5126 66.6281 24.425C66.7114 24.1826 66.7385 23.9244 66.7075 23.6699C66.6765 23.4154 66.5882 23.1714 66.4492 22.956C65.8952 22.395 64.3489 22.656 62.8019 23.977C63.7879 23.1147 64.6042 22.0759 65.2089 20.914C65.7809 19.807 67.2239 17.0141 65.9379 15.1521C65.7103 14.8233 65.4186 14.5439 65.0803 14.3308C64.7419 14.1177 64.3638 13.9753 63.9689 13.9121C62.5519 13.8261 60.9571 15.3621 59.8991 17.9761C59.8535 18.0906 59.7757 18.1893 59.6752 18.2607C59.5747 18.3321 59.4556 18.373 59.3325 18.3784C59.2093 18.3838 59.0872 18.3536 58.9809 18.2912C58.8746 18.2289 58.7886 18.1372 58.7331 18.0271L58.717 17.9961C58.582 17.7401 57.847 16.3421 56.894 16.3191C55.694 16.2891 54.832 18.5771 54.56 19.8191C54.135 21.7581 54.423 21.7949 54.423 21.7949" fill="#FFFEFF"/>
<path d="M57.1879 24.303C55.269 22.2565 52.9958 20.5741 50.478 19.3369C46.2058 17.2399 41.4235 16.4074 36.694 16.937C33.758 17.211 24.862 17.906 18.154 29.178C18.1059 29.2817 18.0904 29.3977 18.1093 29.5105C18.1282 29.6233 18.1806 29.7277 18.2599 29.81C20.1685 32.1105 22.3974 34.1253 24.8781 35.7929C25.2321 36.0309 30.8901 39.7929 31.8781 38.7109C32.9931 37.4949 27.3311 31.078 28.0861 30.396C28.5321 29.996 30.6191 32.138 33.0451 33.605C41.2391 38.561 51.787 34.871 53.321 34.334C58.5637 32.4593 63.148 29.1002 66.5151 24.666C66.5696 24.5947 66.6082 24.5126 66.6281 24.425C66.7114 24.1826 66.7385 23.9244 66.7075 23.6699C66.6765 23.4154 66.5882 23.1714 66.4492 22.956C65.8952 22.395 64.3489 22.656 62.8019 23.977C63.7879 23.1147 64.6042 22.0759 65.2089 20.914C65.7809 19.807 67.2239 17.0141 65.9379 15.1521C65.7103 14.8233 65.4186 14.5439 65.0803 14.3308C64.7419 14.1177 64.3638 13.9753 63.9689 13.9121C62.5519 13.8261 60.9571 15.3621 59.8991 17.9761C59.8535 18.0906 59.7757 18.1893 59.6752 18.2607C59.5747 18.3321 59.4556 18.373 59.3325 18.3784C59.2093 18.3838 59.0872 18.3536 58.9809 18.2912C58.8746 18.2289 58.7886 18.1372 58.7331 18.0271L58.717 17.9961C58.582 17.7401 57.847 16.3421 56.894 16.3191C55.694 16.2891 54.832 18.5771 54.56 19.8191C54.135 21.7581 54.423 21.7949 54.423 21.7949" stroke="#707070" stroke-width="0.8"/>
<path d="M57.1879 24.303C55.269 22.2565 52.9958 20.5741 50.478 19.3369C46.2058 17.2399 41.4235 16.4074 36.694 16.937C33.758 17.211 24.862 17.906 18.154 29.178C18.1059 29.2817 18.0904 29.3977 18.1093 29.5105C18.1282 29.6233 18.1806 29.7277 18.2599 29.81C20.1685 32.1105 22.3974 34.1253 24.8781 35.7929C25.2321 36.0309 30.8901 39.7929 31.8781 38.7109C32.9931 37.4949 27.3311 31.078 28.0861 30.396C28.5321 29.996 30.6191 32.138 33.0451 33.605C41.2391 38.561 51.787 34.871 53.321 34.334C58.5637 32.4593 63.148 29.1002 66.5151 24.666C66.5696 24.5947 66.6082 24.5126 66.6281 24.425C66.7114 24.1826 66.7385 23.9244 66.7075 23.6699C66.6765 23.4154 66.5882 23.1714 66.4492 22.956C65.8952 22.395 64.3489 22.656 62.8019 23.977C63.7879 23.1147 64.6042 22.0759 65.2089 20.914C65.7809 19.807 67.2239 17.0141 65.9379 15.1521C65.7103 14.8233 65.4186 14.5439 65.0803 14.3308C64.7419 14.1177 64.3638 13.9753 63.9689 13.9121C62.5519 13.8261 60.9571 15.3621 59.8991 17.9761C59.8535 18.0906 59.7757 18.1893 59.6752 18.2607C59.5747 18.3321 59.4556 18.373 59.3325 18.3784C59.2093 18.3838 59.0872 18.3536 58.9809 18.2912C58.8746 18.2289 58.7886 18.1372 58.7331 18.0271L58.717 17.9961C58.582 17.7401 57.847 16.3421 56.894 16.3191C55.694 16.2891 54.832 18.5771 54.56 19.8191C54.135 21.7581 54.423 21.7949 54.423 21.7949" stroke="#12100E" stroke-width="0.8" stroke-miterlimit="10" stroke-linecap="round"/>
<path d="M28.472 22.7589C30.328 23.1029 32.107 23.479 33.92 23.945C34.8011 24.2382 35.7038 24.4616 36.62 24.6129C38.4697 24.7224 40.3247 24.525 42.11 24.029C43.8831 23.6042 45.6282 23.0699 47.3351 22.4291C48.2141 22.0991 49.084 21.7201 49.984 21.3561L50.0341 21.4301L49.994 21.4711C49.3103 22.1437 48.5482 22.7316 47.724 23.2221C45.6438 24.4588 43.2803 25.1391 40.861 25.1979C39.907 25.2209 38.954 25.1201 38.005 25.0531C36.583 24.9211 35.164 25.002 33.736 24.862C32.7925 24.7293 31.8668 24.4919 30.976 24.154C30.0541 23.8296 29.1799 23.3838 28.3761 22.828L28.4091 22.748L28.472 22.7589Z" fill="#12100E"/>
<path d="M23.2341 24.2989C25.7357 25.787 28.3392 27.0971 31.0251 28.2191C32.3461 28.8384 33.7203 29.3371 35.131 29.709C36.2017 29.9586 37.2923 30.1138 38.3901 30.1729C39.6281 30.2729 40.977 30.2069 42.216 30.1819C47.1291 29.8935 52.0089 29.1911 56.8039 28.0821L56.86 28.0711L56.8911 28.1641L56.84 28.189C54.1522 29.4751 51.2906 30.3604 48.3461 30.817C47.2398 30.9867 46.1245 31.0927 45.006 31.1341C43.8878 31.1821 42.7678 31.1687 41.6511 31.0941C40.8931 31.0531 39.9121 30.901 39.1511 30.794C38.5311 30.674 37.8511 30.5691 37.2341 30.4581C34.3631 29.8951 31.252 29.5911 28.611 28.2581C26.5808 27.3 24.7356 25.9911 23.1601 24.3919L23.121 24.3509L23.1801 24.2759L23.2341 24.2989Z" fill="#12100E"/>
<path d="M55.029 46.9001C55.007 47.4761 54.6772 47.9312 54.2932 47.9162C53.9092 47.9012 53.6162 47.4222 53.6372 46.8462C53.6582 46.2702 53.989 45.815 54.373 45.83C54.757 45.845 55.05 46.3241 55.028 46.9001" fill="#49340D"/>
<path d="M57.273 48.406C57.511 49.106 57.4311 49.7581 57.0931 49.8741C56.7551 49.9901 56.2928 49.52 56.0508 48.825C55.8088 48.13 55.893 47.473 56.231 47.357C56.569 47.241 57.031 47.711 57.273 48.407" fill="#49340D"/>
<path d="M58.6751 45.5429C58.6541 46.0769 58.4211 46.5019 58.1541 46.4909C57.8871 46.4799 57.6871 46.039 57.7081 45.505C57.7291 44.971 57.9621 44.5461 58.2291 44.5561C58.4961 44.5661 58.6961 45.0079 58.6751 45.5429Z" fill="#49340D"/>
<path d="M23.322 45.041C23.296 45.72 22.8589 46.2551 22.3469 46.2341C22.0652 46.178 21.8162 46.0149 21.6521 45.779C21.488 45.5432 21.4217 45.2527 21.4671 44.969C21.4931 44.29 21.9299 43.7551 22.4419 43.7751C22.7236 43.8317 22.9726 43.9952 23.1365 44.2312C23.3004 44.4672 23.3665 44.7573 23.3211 45.041" fill="#49340D"/>
<path d="M24.133 48.1611C24.0985 48.2769 24.0322 48.3806 23.9416 48.4606C23.851 48.5407 23.7398 48.5938 23.6206 48.6137C23.5014 48.6337 23.379 48.6196 23.2673 48.5734C23.1556 48.5273 23.0591 48.4508 22.9888 48.3525C22.9184 48.2542 22.877 48.1382 22.8694 48.0175C22.8617 47.8969 22.888 47.7765 22.9453 47.6701C23.0026 47.5637 23.0886 47.4754 23.1936 47.4155C23.2986 47.3555 23.4183 47.3263 23.5391 47.331C23.7265 47.365 23.8935 47.4708 24.0044 47.6257C24.1153 47.7806 24.1613 47.9727 24.133 48.1611" fill="#49340D"/>
<path d="M25.8879 45.5238C25.8659 46.0808 25.5879 46.5239 25.2639 46.5089C24.9399 46.4939 24.6969 46.0349 24.7189 45.4779C24.7409 44.9209 25.019 44.4778 25.343 44.4928C25.667 44.5078 25.9109 44.9678 25.8889 45.5238" fill="#49340D"/>
<path d="M34.008 54.5H46.008" stroke="black" stroke-width="1.5" stroke-linecap="round"/>
</svg>
