<svg width="79" height="79" viewBox="0 0 79 79" fill="none" xmlns="http://www.w3.org/2000/svg">
<path d="M39.0892 16.7421C34.308 16.7419 29.6339 18.1594 25.6584 20.8156C21.6828 23.4717 18.5843 27.2472 16.7544 31.6644C14.9246 36.0816 14.4458 40.9421 15.3785 45.6315C16.3111 50.3208 18.6133 54.6283 21.9941 58.0092C25.3748 61.39 29.6823 63.6925 34.3716 64.6254C39.061 65.5582 43.9216 65.0795 48.3389 63.2499C52.7562 61.4202 56.5317 58.322 59.188 54.3466C61.8444 50.3711 63.262 45.6971 63.262 40.9159C63.2551 34.5068 60.7062 28.3624 56.1744 23.8304C51.6426 19.2985 45.4982 16.7492 39.0892 16.7421" fill="#F8CFA0"/>
<path d="M39.0892 16.7421C34.308 16.7419 29.6339 18.1594 25.6584 20.8156C21.6828 23.4717 18.5843 27.2472 16.7544 31.6644C14.9246 36.0816 14.4458 40.9421 15.3785 45.6315C16.3111 50.3208 18.6133 54.6283 21.9941 58.0092C25.3748 61.39 29.6823 63.6925 34.3716 64.6254C39.061 65.5582 43.9216 65.0795 48.3389 63.2499C52.7562 61.4202 56.5317 58.322 59.188 54.3466C61.8444 50.3711 63.262 45.6971 63.262 40.9159C63.2551 34.5068 60.7062 28.3624 56.1744 23.8304C51.6426 19.2985 45.4982 16.7492 39.0892 16.7421" stroke="#707070" stroke-width="0.8"/>
<path d="M39.089 65.09C52.4399 65.09 63.263 54.2669 63.263 40.916C63.263 27.5651 52.4399 16.742 39.089 16.742C25.7381 16.742 14.915 27.5651 14.915 40.916C14.915 54.2669 25.7381 65.09 39.089 65.09Z" stroke="black" stroke-width="0.8" stroke-miterlimit="10"/>
<path d="M34.213 56.051C35.2171 57.372 36.696 58.25 38.3365 58.499C39.977 58.748 41.6502 58.3485 43.0011 57.385C41.8611 56.2694 40.3991 55.5404 38.8221 55.301C37.2451 55.0616 35.6327 55.3239 34.213 56.051" fill="#EF544A"/>
<path d="M34.213 56.051C35.2171 57.372 36.696 58.25 38.3365 58.499C39.977 58.748 41.6502 58.3485 43.0011 57.385C41.8611 56.2694 40.3991 55.5404 38.8221 55.301C37.2451 55.0616 35.6327 55.3239 34.213 56.051" stroke="#707070" stroke-width="0.8"/>
<path d="M34.213 56.051C35.2171 57.372 36.696 58.25 38.3365 58.499C39.977 58.748 41.6502 58.3485 43.0011 57.385C41.8611 56.2694 40.3991 55.5404 38.8221 55.301C37.2451 55.0616 35.6327 55.3239 34.213 56.051V56.051Z" stroke="black" stroke-width="0.8" stroke-miterlimit="10"/>
<path d="M48.2971 50.3449C48.2607 50.229 48.1936 50.1251 48.103 50.0442C48.0123 49.9632 47.9015 49.9081 47.7822 49.885L31.882 47.5141C31.7612 47.5014 31.6391 47.5214 31.5288 47.5722C31.4184 47.6231 31.3239 47.7028 31.2551 47.803C31.1732 47.9142 31.1146 48.0407 31.0825 48.175C31.0504 48.3093 31.0454 48.449 31.0681 48.5852C31.4294 51.3113 32.5173 53.8899 34.218 56.051C35.6378 55.3237 37.2506 55.0611 38.8278 55.3005C40.4051 55.5399 41.8669 56.2691 43.007 57.385C45.2843 55.8155 47.0959 53.6603 48.2502 51.1469C48.3118 51.0238 48.3482 50.8898 48.3571 50.7524C48.3661 50.615 48.3474 50.4772 48.3022 50.3471" fill="#12100E"/>
<path d="M48.2971 50.3449C48.2607 50.229 48.1936 50.1251 48.103 50.0442C48.0123 49.9632 47.9015 49.9081 47.7822 49.885L31.882 47.5141C31.7612 47.5014 31.6391 47.5214 31.5288 47.5722C31.4184 47.6231 31.3239 47.7028 31.2551 47.803C31.1732 47.9142 31.1146 48.0407 31.0825 48.175C31.0504 48.3093 31.0454 48.449 31.0681 48.5852C31.4294 51.3113 32.5173 53.8899 34.218 56.051C35.6378 55.3237 37.2506 55.0611 38.8278 55.3005C40.4051 55.5399 41.8669 56.2691 43.007 57.385C45.2843 55.8155 47.0959 53.6603 48.2502 51.1469C48.3118 51.0238 48.3482 50.8898 48.3571 50.7524C48.3661 50.615 48.3474 50.4772 48.3022 50.3471" stroke="#707070" stroke-width="0.8"/>
<path d="M48.2971 50.3449C48.2607 50.229 48.1936 50.1251 48.103 50.0442C48.0123 49.9632 47.9015 49.9081 47.7822 49.885L31.882 47.5141C31.7612 47.5014 31.6391 47.5214 31.5288 47.5722C31.4184 47.6231 31.3239 47.7028 31.2551 47.803C31.1732 47.9142 31.1146 48.0407 31.0825 48.175C31.0504 48.3093 31.0454 48.449 31.0681 48.5852C31.4294 51.3113 32.5173 53.8899 34.218 56.051C35.6378 55.3237 37.2506 55.0611 38.8278 55.3005C40.4051 55.5399 41.8669 56.2691 43.007 57.385C45.2843 55.8155 47.0959 53.6603 48.2502 51.1469C48.3113 51.0232 48.3469 50.8885 48.3549 50.7507C48.363 50.6129 48.3433 50.475 48.2971 50.3449V50.3449Z" stroke="black" stroke-width="0.8" stroke-miterlimit="10"/>
<path d="M31.3911 50.1701L47.4641 52.57C47.7354 52.1187 47.9957 51.6454 48.2451 51.1501C48.3067 51.027 48.3431 50.8927 48.352 50.7553C48.3609 50.6179 48.3423 50.4801 48.2971 50.35C48.2605 50.2342 48.1934 50.1303 48.1027 50.0495C48.0121 49.9687 47.9014 49.9141 47.7822 49.8911V49.8911L31.882 47.52C31.7612 47.5073 31.6393 47.5275 31.529 47.5783C31.4187 47.6292 31.324 47.709 31.2551 47.809C31.1732 47.9202 31.1146 48.0468 31.0825 48.1811C31.0504 48.3154 31.0454 48.4548 31.0681 48.591C31.1601 49.1363 31.2695 49.6643 31.3962 50.175" fill="white"/>
<path d="M31.3911 50.1701L47.4641 52.57C47.7354 52.1187 47.9957 51.6454 48.2451 51.1501C48.3067 51.027 48.3431 50.8927 48.352 50.7553C48.3609 50.6179 48.3423 50.4801 48.2971 50.35C48.2605 50.2342 48.1934 50.1303 48.1027 50.0495C48.0121 49.9687 47.9014 49.9141 47.7822 49.8911V49.8911L31.882 47.52C31.7612 47.5073 31.6393 47.5275 31.529 47.5783C31.4187 47.6292 31.324 47.709 31.2551 47.809C31.1732 47.9202 31.1146 48.0468 31.0825 48.1811C31.0504 48.3154 31.0454 48.4548 31.0681 48.591C31.1601 49.1363 31.2695 49.6643 31.3962 50.175" stroke="#707070" stroke-width="0.8"/>
<path d="M31.3911 50.1701L47.4641 52.57C47.7354 52.1187 47.9957 51.6454 48.2451 51.1501C48.3067 51.027 48.3431 50.8927 48.352 50.7553C48.3609 50.6179 48.3423 50.4801 48.2971 50.35C48.2605 50.2342 48.1934 50.1303 48.1027 50.0495C48.0121 49.9687 47.9014 49.9141 47.7822 49.8911V49.8911L31.882 47.52C31.7612 47.5073 31.6393 47.5275 31.529 47.5783C31.4187 47.6292 31.324 47.709 31.2551 47.809C31.1732 47.9202 31.1146 48.0468 31.0825 48.1811C31.0504 48.3154 31.0454 48.4548 31.0681 48.591C31.1567 49.133 31.2644 49.6594 31.3911 50.1701Z" stroke="black" stroke-width="0.8" stroke-miterlimit="10"/>
<g opacity="0.2">
<g opacity="0.2">
<g opacity="0.2">
<path opacity="0.2" d="M58.3941 27.442C60.9066 32.7826 61.3259 38.871 59.5694 44.5057C57.8128 50.1403 54.0078 54.912 48.9056 57.8787C43.8033 60.8455 37.7743 61.792 32.0083 60.5313C26.2424 59.2706 21.1587 55.8943 17.7601 51.0689C19.1505 54.0318 21.1419 56.673 23.6082 58.8245C26.0745 60.9761 28.9616 62.5911 32.0857 63.5667C35.2098 64.5423 38.5026 64.8571 41.7549 64.4913C45.0073 64.1255 48.148 63.0871 50.9773 61.442C53.8067 59.7968 56.263 57.5808 58.1897 54.9351C60.1165 52.2895 61.4717 49.272 62.1692 46.0743C62.8668 42.8766 62.8912 39.5688 62.2413 36.3611C61.5913 33.1534 60.2813 30.1159 58.3941 27.442" fill="#FDA502"/>
</g>
</g>
</g>
<path d="M31.1648 40.152C30.3428 40.1533 29.5356 40.3702 28.8235 40.7809C28.1115 41.1917 27.5196 41.7821 27.107 42.4931C26.9928 42.6903 26.9616 42.9245 27.0203 43.1447C27.079 43.3649 27.2228 43.5528 27.42 43.6669C27.6171 43.7811 27.8516 43.8123 28.0718 43.7536C28.292 43.6949 28.4798 43.5511 28.594 43.3539C28.8545 42.9027 29.229 42.5281 29.6802 42.2675C30.1314 42.007 30.6433 41.8698 31.1643 41.8698C31.6854 41.8698 32.1972 42.007 32.6485 42.2675C33.0997 42.5281 33.4744 42.9027 33.7349 43.3539C33.8509 43.5473 34.0381 43.6874 34.2564 43.7438C34.4746 43.8003 34.7065 43.7686 34.9016 43.6557C35.0968 43.5428 35.2397 43.3577 35.2996 43.1403C35.3595 42.923 35.3317 42.691 35.222 42.4941C34.8096 41.783 34.218 41.1924 33.5061 40.7814C32.7943 40.3705 31.9868 40.1536 31.1648 40.152" fill="#12100E"/>
<path d="M47.014 40.152C46.1921 40.1535 45.3851 40.3704 44.6732 40.7812C43.9613 41.192 43.3697 41.7822 42.9571 42.4931C42.85 42.6897 42.8237 42.9203 42.8841 43.1359C42.9446 43.3516 43.0869 43.5351 43.2806 43.6474C43.4744 43.7597 43.7044 43.7918 43.9215 43.737C44.1386 43.6822 44.3259 43.5447 44.4432 43.3539C44.7037 42.9027 45.0782 42.5281 45.5294 42.2675C45.9806 42.007 46.4925 41.8698 47.0135 41.8698C47.5346 41.8698 48.0465 42.007 48.4977 42.2675C48.9489 42.5281 49.3236 42.9027 49.5841 43.3539C49.7001 43.5473 49.8873 43.6874 50.1056 43.7438C50.3238 43.8003 50.5557 43.7686 50.7508 43.6557C50.946 43.5428 51.0889 43.3577 51.1488 43.1403C51.2087 42.923 51.1809 42.691 51.0712 42.4941C50.6588 41.783 50.067 41.1924 49.3551 40.7814C48.6432 40.3705 47.836 40.1536 47.014 40.152" fill="#12100E"/>
<g style="mix-blend-mode:multiply" opacity="0.2">
<g style="mix-blend-mode:multiply" opacity="0.2">
<g style="mix-blend-mode:multiply" opacity="0.2">
<g style="mix-blend-mode:multiply" opacity="0.2">
<path d="M57.6959 25.286C55.777 23.2398 53.5038 21.5579 50.986 20.3211C46.7138 18.2241 41.9315 17.3912 37.202 17.921C34.266 18.195 25.37 18.8899 18.662 30.1629C18.6139 30.2667 18.5984 30.3826 18.6173 30.4954C18.6362 30.6082 18.6886 30.7126 18.7679 30.795C20.6767 33.0954 22.9055 35.1101 25.3861 36.7779C25.7401 37.0159 31.3981 40.7781 32.3861 39.6961C33.5011 38.4801 27.8391 32.0629 28.5941 31.3809C29.0401 30.9809 31.1271 33.1229 33.5531 34.5899C41.7471 39.5459 52.295 35.8559 53.829 35.3189C59.0718 33.4446 63.6562 30.0855 67.0231 25.651C67.0776 25.5797 67.1162 25.4975 67.1361 25.41C67.2195 25.1677 67.2467 24.9097 67.2157 24.6553C67.1847 24.401 67.0963 24.1571 66.9572 23.942C66.4032 23.38 64.8569 23.642 63.3099 24.963C64.2958 24.1005 65.1121 23.0618 65.7169 21.9C66.2889 20.793 67.7319 18 66.4459 16.138C66.2185 15.8091 65.9269 15.5296 65.5885 15.3165C65.2501 15.1034 64.8719 14.961 64.4769 14.898C63.0599 14.812 61.4641 16.348 60.4071 18.962C60.3614 19.0765 60.2837 19.1753 60.1832 19.2467C60.0827 19.318 59.9636 19.3589 59.8405 19.3643C59.7173 19.3697 59.5952 19.3395 59.4889 19.2772C59.3825 19.2148 59.2966 19.1231 59.2411 19.013L59.225 18.983C59.09 18.727 58.355 17.329 57.402 17.306C56.202 17.276 55.34 19.564 55.068 20.806C54.643 22.745 54.931 22.7821 54.931 22.7821" fill="black"/>
<path d="M57.6959 25.286C55.777 23.2398 53.5038 21.5579 50.986 20.3211C46.7138 18.2241 41.9315 17.3912 37.202 17.921C34.266 18.195 25.37 18.8899 18.662 30.1629C18.6139 30.2667 18.5984 30.3826 18.6173 30.4954C18.6362 30.6082 18.6886 30.7126 18.7679 30.795C20.6767 33.0954 22.9055 35.1101 25.3861 36.7779C25.7401 37.0159 31.3981 40.7781 32.3861 39.6961C33.5011 38.4801 27.8391 32.0629 28.5941 31.3809C29.0401 30.9809 31.1271 33.1229 33.5531 34.5899C41.7471 39.5459 52.295 35.8559 53.829 35.3189C59.0718 33.4446 63.6562 30.0855 67.0231 25.651C67.0776 25.5797 67.1162 25.4975 67.1361 25.41C67.2195 25.1677 67.2467 24.9097 67.2157 24.6553C67.1847 24.401 67.0963 24.1571 66.9572 23.942C66.4032 23.38 64.8569 23.642 63.3099 24.963C64.2958 24.1005 65.1121 23.0618 65.7169 21.9C66.2889 20.793 67.7319 18 66.4459 16.138C66.2185 15.8091 65.9269 15.5296 65.5885 15.3165C65.2501 15.1034 64.8719 14.961 64.4769 14.898C63.0599 14.812 61.4641 16.348 60.4071 18.962C60.3614 19.0765 60.2837 19.1753 60.1832 19.2467C60.0827 19.318 59.9636 19.3589 59.8405 19.3643C59.7173 19.3697 59.5952 19.3395 59.4889 19.2772C59.3825 19.2148 59.2966 19.1231 59.2411 19.013L59.225 18.983C59.09 18.727 58.355 17.329 57.402 17.306C56.202 17.276 55.34 19.564 55.068 20.806C54.643 22.745 54.931 22.7821 54.931 22.7821" stroke="#707070" stroke-width="0.8"/>
</g>
<g style="mix-blend-mode:multiply" opacity="0.2">
<path d="M57.6959 25.286C55.777 23.2398 53.5038 21.5579 50.986 20.3211C46.7138 18.2241 41.9315 17.3912 37.202 17.921C34.266 18.195 25.37 18.8899 18.662 30.1629C18.6139 30.2667 18.5984 30.3826 18.6173 30.4954C18.6362 30.6082 18.6886 30.7126 18.7679 30.795C20.6767 33.0954 22.9055 35.1101 25.3861 36.7779C25.7401 37.0159 31.3981 40.7781 32.3861 39.6961C33.5011 38.4801 27.8391 32.0629 28.5941 31.3809C29.0401 30.9809 31.1271 33.1229 33.5531 34.5899C41.7471 39.5459 52.295 35.8559 53.829 35.3189C59.0718 33.4446 63.6562 30.0855 67.0231 25.651C67.0776 25.5797 67.1162 25.4975 67.1361 25.41C67.2195 25.1677 67.2467 24.9097 67.2157 24.6553C67.1847 24.401 67.0963 24.1571 66.9572 23.942C66.4032 23.38 64.8569 23.642 63.3099 24.963C64.2958 24.1005 65.1121 23.0618 65.7169 21.9C66.2889 20.793 67.7319 18 66.4459 16.138C66.2185 15.8091 65.9269 15.5296 65.5885 15.3165C65.2501 15.1034 64.8719 14.961 64.4769 14.898C63.0599 14.812 61.4641 16.348 60.4071 18.962C60.3614 19.0765 60.2837 19.1753 60.1832 19.2467C60.0827 19.318 59.9636 19.3589 59.8405 19.3643C59.7173 19.3697 59.5952 19.3395 59.4889 19.2772C59.3825 19.2148 59.2966 19.1231 59.2411 19.013L59.225 18.983C59.09 18.727 58.355 17.329 57.402 17.306C56.202 17.276 55.34 19.564 55.068 20.806C54.643 22.745 54.931 22.7821 54.931 22.7821" stroke="black" stroke-width="0.8" stroke-miterlimit="10" stroke-linecap="round"/>
</g>
</g>
</g>
</g>
<path d="M56.8549 24.303C54.936 22.2565 52.6628 20.5741 50.145 19.3369C45.8728 17.2399 41.0905 16.4074 36.361 16.937C33.425 17.211 24.529 17.906 17.821 29.178C17.7729 29.2817 17.7574 29.3977 17.7763 29.5105C17.7952 29.6233 17.8476 29.7277 17.9269 29.81C19.8355 32.1105 22.0644 34.1253 24.5451 35.7929C24.8991 36.0309 30.5571 39.7929 31.5451 38.7109C32.6601 37.4949 26.9981 31.078 27.7531 30.396C28.1991 29.996 30.2861 32.138 32.7121 33.605C40.9061 38.561 51.454 34.871 52.988 34.334C58.2307 32.4593 62.815 29.1002 66.1821 24.666C66.2366 24.5947 66.2752 24.5126 66.2951 24.425C66.3784 24.1826 66.4055 23.9244 66.3745 23.6699C66.3434 23.4154 66.2552 23.1714 66.1161 22.956C65.5621 22.395 64.0159 22.656 62.4689 23.977C63.4549 23.1147 64.2712 22.0759 64.8759 20.914C65.4479 19.807 66.8909 17.0141 65.6049 15.1521C65.3773 14.8233 65.0856 14.5439 64.7473 14.3308C64.4089 14.1177 64.0308 13.9753 63.6359 13.9121C62.2189 13.8261 60.6241 15.3621 59.5661 17.9761C59.5204 18.0906 59.4427 18.1893 59.3422 18.2607C59.2417 18.3321 59.1226 18.373 58.9995 18.3784C58.8763 18.3838 58.7542 18.3536 58.6479 18.2912C58.5415 18.2289 58.4556 18.1372 58.4001 18.0271L58.384 17.9961C58.249 17.7401 57.514 16.3421 56.561 16.3191C55.361 16.2891 54.499 18.5771 54.227 19.8191C53.802 21.7581 54.09 21.7949 54.09 21.7949" fill="#FFFEFF"/>
<path d="M56.8549 24.303C54.936 22.2565 52.6628 20.5741 50.145 19.3369C45.8728 17.2399 41.0905 16.4074 36.361 16.937C33.425 17.211 24.529 17.906 17.821 29.178C17.7729 29.2817 17.7574 29.3977 17.7763 29.5105C17.7952 29.6233 17.8476 29.7277 17.9269 29.81C19.8355 32.1105 22.0644 34.1253 24.5451 35.7929C24.8991 36.0309 30.5571 39.7929 31.5451 38.7109C32.6601 37.4949 26.9981 31.078 27.7531 30.396C28.1991 29.996 30.2861 32.138 32.7121 33.605C40.9061 38.561 51.454 34.871 52.988 34.334C58.2307 32.4593 62.815 29.1002 66.1821 24.666C66.2366 24.5947 66.2752 24.5126 66.2951 24.425C66.3784 24.1826 66.4055 23.9244 66.3745 23.6699C66.3434 23.4154 66.2552 23.1714 66.1161 22.956C65.5621 22.395 64.0159 22.656 62.4689 23.977C63.4549 23.1147 64.2712 22.0759 64.8759 20.914C65.4479 19.807 66.8909 17.0141 65.6049 15.1521C65.3773 14.8233 65.0856 14.5439 64.7473 14.3308C64.4089 14.1177 64.0308 13.9753 63.6359 13.9121C62.2189 13.8261 60.6241 15.3621 59.5661 17.9761C59.5204 18.0906 59.4427 18.1893 59.3422 18.2607C59.2417 18.3321 59.1226 18.373 58.9995 18.3784C58.8763 18.3838 58.7542 18.3536 58.6479 18.2912C58.5415 18.2289 58.4556 18.1372 58.4001 18.0271L58.384 17.9961C58.249 17.7401 57.514 16.3421 56.561 16.3191C55.361 16.2891 54.499 18.5771 54.227 19.8191C53.802 21.7581 54.09 21.7949 54.09 21.7949" stroke="#707070" stroke-width="0.8"/>
<path d="M56.8549 24.303C54.936 22.2565 52.6628 20.5741 50.145 19.3369C45.8728 17.2399 41.0905 16.4074 36.361 16.937C33.425 17.211 24.529 17.906 17.821 29.178C17.7729 29.2817 17.7574 29.3977 17.7763 29.5105C17.7952 29.6233 17.8476 29.7277 17.9269 29.81C19.8355 32.1105 22.0644 34.1253 24.5451 35.7929C24.8991 36.0309 30.5571 39.7929 31.5451 38.7109C32.6601 37.4949 26.9981 31.078 27.7531 30.396C28.1991 29.996 30.2861 32.138 32.7121 33.605C40.9061 38.561 51.454 34.871 52.988 34.334C58.2307 32.4593 62.815 29.1002 66.1821 24.666C66.2366 24.5947 66.2752 24.5126 66.2951 24.425C66.3784 24.1826 66.4055 23.9244 66.3745 23.6699C66.3434 23.4154 66.2552 23.1714 66.1161 22.956C65.5621 22.395 64.0159 22.656 62.4689 23.977C63.4549 23.1147 64.2712 22.0759 64.8759 20.914C65.4479 19.807 66.8909 17.0141 65.6049 15.1521C65.3773 14.8233 65.0856 14.5439 64.7473 14.3308C64.4089 14.1177 64.0308 13.9753 63.6359 13.9121C62.2189 13.8261 60.6241 15.3621 59.5661 17.9761C59.5204 18.0906 59.4427 18.1893 59.3422 18.2607C59.2417 18.3321 59.1226 18.373 58.9995 18.3784C58.8763 18.3838 58.7542 18.3536 58.6479 18.2912C58.5415 18.2289 58.4556 18.1372 58.4001 18.0271L58.384 17.9961C58.249 17.7401 57.514 16.3421 56.561 16.3191C55.361 16.2891 54.499 18.5771 54.227 19.8191C53.802 21.7581 54.09 21.7949 54.09 21.7949" stroke="#12100E" stroke-width="0.8" stroke-miterlimit="10" stroke-linecap="round"/>
<path d="M28.139 22.7589C29.995 23.1029 31.774 23.479 33.587 23.945C34.4681 24.2382 35.3708 24.4616 36.287 24.6129C38.1367 24.7224 39.9917 24.525 41.777 24.029C43.55 23.6042 45.2952 23.0699 47.0021 22.4291C47.8811 22.0991 48.751 21.7201 49.651 21.3561L49.701 21.4301L49.661 21.4711C48.9773 22.1437 48.2152 22.7316 47.391 23.2221C45.3108 24.4588 42.9473 25.1391 40.528 25.1979C39.574 25.2209 38.621 25.1201 37.672 25.0531C36.25 24.9211 34.831 25.002 33.403 24.862C32.4595 24.7293 31.5338 24.4919 30.6429 24.154C29.7211 23.8296 28.8469 23.3838 28.0431 22.828L28.076 22.748L28.139 22.7589Z" fill="#12100E"/>
<path d="M22.9011 24.2989C25.4027 25.787 28.0062 27.0971 30.6921 28.2191C32.0131 28.8384 33.3873 29.3371 34.798 29.709C35.8687 29.9586 36.9593 30.1138 38.0571 30.1729C39.2951 30.2729 40.644 30.2069 41.883 30.1819C46.7961 29.8935 51.6759 29.1911 56.4709 28.0821L56.527 28.0711L56.558 28.1641L56.507 28.189C53.8192 29.4751 50.9576 30.3604 48.0131 30.817C46.9068 30.9867 45.7915 31.0927 44.673 31.1341C43.5548 31.1821 42.4348 31.1687 41.3181 31.0941C40.5601 31.0531 39.5791 30.901 38.8181 30.794C38.1981 30.674 37.5181 30.5691 36.9011 30.4581C34.0301 29.8951 30.919 29.5911 28.278 28.2581C26.2478 27.3 24.4026 25.9911 22.8271 24.3919L22.788 24.3509L22.8471 24.2759L22.9011 24.2989Z" fill="#12100E"/>
<path d="M54.696 46.9001C54.674 47.4761 54.3442 47.9312 53.9602 47.9162C53.5762 47.9012 53.2832 47.4222 53.3042 46.8462C53.3252 46.2702 53.656 45.815 54.04 45.83C54.424 45.845 54.717 46.3241 54.695 46.9001" fill="#49340D"/>
<path d="M56.94 48.406C57.178 49.106 57.098 49.7581 56.76 49.8741C56.422 49.9901 55.9598 49.52 55.7178 48.825C55.4758 48.13 55.56 47.473 55.898 47.357C56.236 47.241 56.698 47.711 56.94 48.407" fill="#49340D"/>
<path d="M58.3421 45.5429C58.3211 46.0769 58.0881 46.5019 57.8211 46.4909C57.5541 46.4799 57.354 46.039 57.375 45.505C57.396 44.971 57.629 44.5461 57.896 44.5561C58.163 44.5661 58.3631 45.0079 58.3421 45.5429Z" fill="#49340D"/>
<path d="M22.989 45.041C22.963 45.72 22.526 46.2551 22.014 46.2341C21.7322 46.178 21.4832 46.0149 21.3191 45.779C21.155 45.5432 21.0887 45.2527 21.1341 44.969C21.1601 44.29 21.5969 43.7551 22.1089 43.7751C22.3906 43.8317 22.6396 43.9952 22.8035 44.2312C22.9674 44.4672 23.0335 44.7573 22.9881 45.041" fill="#49340D"/>
<path d="M23.8 48.1611C23.7655 48.2769 23.6992 48.3806 23.6086 48.4606C23.518 48.5407 23.4068 48.5938 23.2876 48.6137C23.1684 48.6337 23.046 48.6196 22.9343 48.5734C22.8226 48.5273 22.7261 48.4508 22.6558 48.3525C22.5854 48.2542 22.544 48.1382 22.5364 48.0175C22.5287 47.8969 22.555 47.7765 22.6123 47.6701C22.6696 47.5637 22.7556 47.4754 22.8606 47.4155C22.9656 47.3555 23.0853 47.3263 23.206 47.331C23.3935 47.365 23.5605 47.4707 23.6714 47.6257C23.7823 47.7806 23.8283 47.9727 23.8 48.1611" fill="#49340D"/>
<path d="M25.5549 45.5238C25.5329 46.0808 25.2549 46.5239 24.9309 46.5089C24.6069 46.4939 24.364 46.0349 24.386 45.4779C24.408 44.9209 24.686 44.4778 25.01 44.4928C25.334 44.5078 25.5779 44.9678 25.5559 45.5238" fill="#49340D"/>
</svg>
